<?xml version="1.0" standalone="no"?>
<!DOCTYPE svg PUBLIC "-//W3C//DTD SVG 20010904//EN"
 "http://www.w3.org/TR/2001/REC-SVG-20010904/DTD/svg10.dtd">
<svg version="1.0" xmlns="http://www.w3.org/2000/svg"
 width="715.000000pt" height="715.000000pt" viewBox="0 0 715.000000 715.000000"
 preserveAspectRatio="xMidYMid meet">

<g transform="translate(0.000000,715.000000) scale(0.100000,-0.100000)"
fill="#000000" stroke="none">
<path d="M3400 6262 c-25 -1 -52 -5 -60 -8 -8 -3 -49 -7 -90 -9 -124 -5 -469
-86 -595 -139 -16 -7 -57 -24 -90 -36 -33 -13 -98 -41 -145 -63 l-85 -39 28
-14 c30 -16 35 -39 11 -48 -25 -10 -47 -7 -78 9 -27 14 -31 13 -90 -22 -328
-196 -626 -473 -838 -778 -270 -389 -452 -890 -472 -1300 -2 -44 -7 -89 -11
-99 -6 -15 -5 -17 5 -11 10 6 11 3 5 -16 -10 -30 -10 -86 -1 -119 6 -18 5 -21
-2 -11 -7 10 -10 -4 -9 -47 1 -52 4 -62 21 -64 26 -4 29 -49 5 -66 -25 -17
-24 -42 0 -42 31 0 38 -40 11 -60 -20 -15 -22 -23 -16 -66 4 -27 10 -57 12
-67 6 -18 6 -18 20 0 18 25 18 3 -1 -24 -14 -20 -13 -59 2 -86 7 -11 32 24 33
44 0 20 39 70 40 52 0 -7 7 -10 16 -6 12 4 14 0 8 -23 -17 -76 -39 -127 -59
-140 -25 -16 -27 -1 27 -188 l20 -69 17 29 c10 16 25 35 34 43 11 8 15 21 11
36 -3 13 -1 26 5 29 6 4 11 16 11 27 0 11 6 22 14 25 8 3 16 14 19 25 3 10 10
19 15 19 17 0 2 -73 -19 -92 -28 -24 -25 -60 4 -56 20 3 22 -1 25 -55 2 -32
-1 -64 -6 -70 -14 -18 -12 -67 3 -67 14 0 25 22 25 50 0 15 22 29 52 34 23 3
44 -28 42 -62 -2 -23 -1 -27 3 -12 2 14 12 33 20 43 12 12 13 17 3 17 -19 0
-3 94 23 131 8 11 13 28 10 39 -7 25 9 31 44 18 26 -10 30 -16 30 -50 0 -26
-7 -46 -22 -62 -13 -14 -20 -27 -17 -30 3 -3 11 2 18 12 10 13 15 14 25 5 10
-10 9 -15 -1 -27 -7 -9 -9 -24 -5 -33 6 -16 9 -15 30 10 13 15 30 27 38 27 13
0 23 18 41 73 3 9 10 17 16 17 12 0 13 -37 1 -44 -5 -3 -12 -23 -15 -43 -8
-42 -26 -95 -37 -103 -3 -3 -16 -25 -27 -48 -17 -36 -19 -47 -9 -63 9 -15 9
-23 0 -39 -12 -19 -7 -80 6 -80 16 0 51 32 51 47 0 10 6 13 16 9 11 -4 30 9
58 39 33 34 47 43 65 38 16 -4 20 -10 15 -22 -4 -9 -9 -28 -12 -44 -4 -23 -2
-26 14 -20 18 6 18 6 1 -14 -9 -11 -14 -23 -10 -28 5 -4 3 -5 -4 -1 -7 4 -17
-2 -23 -15 -10 -18 -9 -20 8 -15 17 6 19 3 14 -21 -6 -35 -20 -45 -45 -32 -27
15 -49 3 -45 -23 2 -15 -5 -26 -22 -35 -43 -21 -60 -49 -47 -78 14 -28 22 -31
31 -10 3 8 12 12 20 9 14 -5 14 -8 1 -21 -8 -8 -15 -20 -15 -26 0 -7 18 8 40
32 38 41 40 42 40 18 0 -28 25 -43 38 -22 4 8 20 16 36 17 l28 2 -6 71 c-5 66
-5 68 7 35 10 -25 21 -36 38 -38 19 -3 22 -1 12 9 -15 15 -17 29 -4 29 5 0 25
-33 46 -72 28 -55 37 -84 36 -116 -1 -26 3 -41 9 -37 13 8 48 -11 82 -44 29
-27 35 -50 18 -67 -12 -12 -3 -44 11 -44 5 0 14 -12 19 -26 7 -19 16 -25 32
-22 27 4 37 37 14 50 -9 5 -16 16 -16 23 0 22 27 18 33 -5 4 -15 14 -20 38
-20 26 0 30 -3 21 -12 -7 -7 -12 -24 -12 -40 0 -15 -7 -31 -16 -36 -11 -6 -14
-14 -8 -23 21 -33 29 -76 22 -118 -4 -24 -5 -47 -2 -52 3 -5 0 -9 -5 -9 -6 0
-11 5 -11 10 0 6 -11 10 -25 10 -17 0 -25 6 -25 18 0 13 -9 17 -39 17 -22 0
-43 -4 -48 -9 -5 -5 -3 -6 5 -2 6 4 12 3 12 -3 0 -5 -6 -12 -12 -15 -7 -3 5
-3 27 -1 22 3 34 2 28 -1 -7 -3 -13 -11 -13 -18 0 -7 -11 -25 -24 -39 -14 -15
-26 -34 -28 -44 -4 -22 -38 -30 -49 -11 -7 11 -9 11 -9 -1 0 -17 80 -90 100
-91 8 0 21 -9 28 -20 7 -11 18 -20 26 -20 8 0 16 -7 20 -15 3 -8 12 -12 21 -9
10 4 15 2 13 -6 -2 -7 3 -15 10 -17 15 -6 16 21 0 50 -11 21 -11 21 -19 2 -6
-16 -8 -16 -8 -4 -1 18 -27 33 -41 24 -11 -7 -32 30 -23 39 12 11 23 6 23 -11
0 -11 3 -14 8 -7 4 6 15 13 25 17 10 4 15 11 12 17 -3 5 6 21 21 35 15 14 24
28 21 32 -12 11 -57 -20 -57 -39 0 -20 -26 -25 -33 -5 -4 9 -8 8 -16 -3 -13
-19 -22 -9 -14 18 3 12 11 22 19 22 8 0 11 6 8 15 -4 8 -2 15 4 15 6 0 12 -5
14 -10 2 -7 21 -1 45 12 34 19 44 21 55 10 10 -10 10 -14 -1 -21 -7 -5 -11
-13 -7 -19 3 -6 2 -22 -3 -35 -8 -19 -6 -27 4 -31 8 -3 14 0 12 6 -1 6 4 13
11 15 6 3 12 -2 12 -11 0 -17 12 -21 24 -9 4 4 15 8 24 8 10 0 25 17 35 39
l18 38 29 -27 c28 -26 28 -27 74 -11 55 19 82 20 92 5 11 -18 -23 -42 -58 -42
-20 0 -46 -9 -65 -24 -26 -19 -33 -21 -33 -9 0 20 -14 20 -30 1 -10 -12 -10
-18 0 -30 12 -14 7 -19 -14 -16 -4 1 -14 -3 -22 -10 -11 -9 -15 -8 -20 5 -5
13 -10 14 -27 4 -12 -7 -26 -11 -31 -10 -4 2 -5 -10 -1 -25 5 -15 9 -38 10
-51 1 -15 15 -32 41 -47 21 -14 42 -25 45 -25 4 0 12 14 19 31 l13 31 18 -39
c10 -21 18 -43 19 -50 0 -7 10 -17 21 -24 12 -6 19 -7 16 -2 -3 5 -2 15 4 23
6 10 9 11 9 3 0 -18 27 -16 34 2 3 8 10 15 16 15 14 0 12 -37 -2 -43 -20 -7
-6 -15 30 -19 33 -3 34 -2 37 42 2 28 0 39 -5 30 -9 -15 -25 -7 -25 13 0 7 -8
11 -18 9 -11 -2 -17 4 -17 18 0 21 15 27 25 9 5 -7 13 -4 26 7 10 9 16 20 14
24 -11 18 9 40 35 40 33 0 49 -17 25 -26 -9 -4 -14 -13 -11 -20 3 -8 -1 -14
-9 -14 -10 0 -15 -10 -15 -27 0 -27 20 -71 20 -46 0 6 9 14 19 18 12 4 18 12
14 21 -3 8 1 14 10 14 11 0 13 6 9 22 -4 17 -2 20 11 15 13 -5 17 -1 17 16 0
12 6 34 14 49 8 15 10 28 5 30 -5 2 2 24 15 49 12 26 25 56 29 68 7 27 54 46
74 30 8 -7 12 -18 9 -25 -3 -7 1 -18 9 -24 8 -6 12 -17 9 -24 -3 -8 5 -15 20
-18 22 -4 27 0 38 31 7 20 13 41 13 48 0 20 15 27 16 7 0 -17 1 -16 9 4 11 25
19 27 44 9 18 -13 14 -44 -8 -49 -9 -2 -8 -11 6 -33 l20 -30 -5 28 c-4 23 0
30 21 38 13 5 27 7 30 4 3 -3 0 -5 -7 -5 -7 0 -10 -7 -6 -18 3 -13 -2 -25 -18
-37 -17 -12 -22 -24 -19 -42 3 -14 -3 -31 -13 -43 -17 -18 -17 -21 -2 -37 8
-10 16 -21 16 -25 1 -12 15 -11 19 1 2 6 -3 14 -12 17 -21 8 -20 40 1 52 10 6
14 16 9 27 -13 36 38 61 63 31 19 -22 21 -55 5 -64 -8 -5 -12 -15 -9 -24 6
-14 9 -14 36 -1 16 8 32 25 35 38 7 29 32 39 66 26 24 -9 59 6 59 26 1 4 3 10
6 13 4 3 3 -1 -1 -7 -4 -7 -4 -13 0 -13 12 0 104 63 104 71 0 5 7 6 16 2 10
-4 17 2 21 17 4 14 8 18 13 10 6 -9 15 -8 39 6 17 10 31 22 31 26 0 4 6 8 14
8 7 0 19 7 26 15 19 23 40 18 40 -9 0 -29 -39 -77 -47 -58 -4 9 -20 4 -61 -19
-32 -17 -61 -38 -65 -45 -4 -8 -16 -14 -25 -14 -9 0 -50 -19 -90 -41 -71 -39
-73 -41 -59 -63 13 -19 13 -25 0 -50 l-15 -29 38 7 c29 6 49 19 77 52 38 43
62 57 51 31 -3 -8 2 -20 11 -27 19 -16 19 -33 0 -70 -17 -33 -12 -39 11 -15
19 18 34 19 34 2 0 -7 14 -18 30 -24 17 -6 30 -16 30 -23 0 -14 -66 -42 -88
-38 -10 2 -22 -3 -28 -11 -14 -19 2 -37 37 -43 20 -4 18 -6 -13 -12 -29 -6
-41 -4 -53 8 -22 21 -32 20 -45 -4 -9 -16 -7 -24 6 -38 10 -9 24 -17 33 -17
24 0 23 -19 -1 -30 -27 -12 -38 -55 -14 -55 9 0 16 -3 16 -7 0 -11 67 -10 77
1 4 5 3 6 -3 3 -7 -4 -15 0 -18 8 -3 9 1 18 9 21 8 3 11 12 8 22 -5 12 -2 14
13 7 39 -17 69 -11 72 12 4 27 14 29 32 8 7 -8 9 -15 5 -15 -4 0 -2 -7 5 -15
7 -8 8 -15 2 -15 -5 0 -12 -9 -15 -20 -3 -12 -14 -20 -27 -20 -11 0 -18 5 -15
10 3 6 1 10 -5 10 -7 0 -9 -7 -6 -16 3 -9 6 -20 6 -25 0 -4 7 -6 16 -2 12 4
15 2 12 -8 -3 -8 -10 -14 -15 -14 -6 0 -15 -4 -20 -8 -4 -5 12 -6 36 -3 26 3
48 11 53 20 13 23 32 20 43 -6 12 -27 55 -38 55 -14 0 10 6 13 15 10 8 -4 13
-10 10 -14 -7 -11 165 -2 222 11 23 5 49 6 57 3 9 -3 16 -1 16 5 0 6 12 8 32
4 27 -5 30 -4 25 11 -4 10 -7 21 -7 26 0 4 -9 10 -21 13 -26 7 -20 32 7 32 12
0 20 8 22 21 2 17 -2 21 -27 21 -17 0 -28 -4 -25 -9 9 -14 -8 -9 -20 7 -13 16
-128 31 -148 19 -7 -5 -43 -7 -79 -5 -53 2 -67 -1 -72 -13 -9 -22 5 -27 48
-15 29 8 40 8 46 -2 11 -18 0 -32 -16 -19 -24 20 -90 -21 -90 -55 0 -27 -29
-26 -33 2 -2 12 -10 27 -18 33 -8 7 -14 20 -14 30 0 13 -6 17 -18 13 -10 -2
-24 2 -30 10 -19 22 11 40 69 42 27 1 54 6 59 11 6 6 51 5 121 -2 114 -12 145
-10 167 12 14 15 76 -1 66 -17 -3 -5 28 -9 71 -9 69 0 93 -6 135 -35 8 -6 29
-12 45 -14 17 -2 31 -6 33 -11 1 -4 8 -14 15 -23 11 -14 23 -12 117 16 898
276 1588 1000 1820 1911 71 279 99 566 80 826 -14 198 -34 340 -48 340 -4 0
-15 -71 -26 -157 -20 -178 -23 -193 -38 -193 -7 0 -8 15 -4 43 4 23 11 78 16
122 4 44 15 123 23 175 11 69 13 108 6 145 -13 71 -80 279 -90 283 -5 2 -9 13
-9 24 0 21 -87 235 -98 242 -4 2 -20 -37 -37 -86 -16 -50 -31 -85 -33 -79 -2
6 6 37 17 69 12 32 21 67 21 78 0 11 5 25 11 31 8 8 4 25 -16 62 -16 28 -32
51 -37 51 -4 0 -8 8 -8 17 0 21 -100 181 -117 187 -8 3 -21 -11 -34 -35 -16
-32 -23 -38 -34 -29 -13 11 -13 18 1 58 6 14 8 13 14 -8 7 -25 7 -25 22 10 14
34 14 36 -16 80 -52 77 -147 190 -242 290 l-92 95 -18 -21 c-25 -28 -104 -58
-117 -45 -16 16 1 44 23 38 16 -4 20 0 20 19 0 13 -1 26 -2 27 -2 2 3 11 10
20 14 17 9 37 -10 37 -5 0 -23 -9 -39 -21 -36 -26 -38 -12 -2 17 l27 21 -82
65 c-129 102 -124 101 -178 42 -26 -28 -39 -37 -30 -22 21 36 20 47 -4 41 -14
-4 -20 0 -20 11 0 19 21 21 39 4 10 -11 15 -9 27 6 17 23 18 36 4 36 -6 0 -24
10 -40 22 -25 18 -33 20 -55 10 -14 -7 -37 -12 -50 -12 -14 0 -25 -4 -25 -10
0 -5 8 -7 18 -4 9 4 -5 -9 -33 -28 -51 -36 -79 -40 -50 -8 11 12 13 20 6 25
-18 10 -13 50 8 69 34 31 9 62 -91 112 -48 24 -88 41 -89 37 -1 -5 0 -18 1
-30 1 -24 -32 -63 -55 -63 -8 0 -19 9 -25 20 -6 11 -18 20 -26 20 -11 0 -14 6
-10 16 5 12 2 15 -10 10 -8 -3 -21 -6 -28 -6 -8 0 -11 -12 -8 -34 2 -18 -1
-37 -7 -40 -6 -4 -11 -13 -11 -19 0 -7 4 -6 10 3 8 13 10 13 10 -1 0 -20 -43
-44 -65 -35 -24 9 -14 40 13 44 21 3 19 6 -15 23 -46 23 -46 23 -31 -1 11 -17
9 -23 -8 -41 l-21 -20 -1 31 c0 18 3 43 8 56 6 14 6 26 0 29 -6 4 -10 16 -10
28 0 15 -3 18 -10 11 -8 -8 -7 -19 1 -38 10 -22 10 -29 -3 -42 -14 -14 -19
-14 -47 0 -36 19 -40 47 -10 68 20 12 20 15 5 27 -14 12 -16 12 -9 -4 5 -15 3
-17 -12 -11 -27 10 -55 -21 -55 -61 0 -27 -5 -35 -27 -44 -14 -5 -32 -8 -39
-5 -14 5 -28 -20 -25 -44 1 -12 0 -13 -7 -1 -8 11 -14 8 -28 -15 -10 -16 -26
-39 -37 -51 -10 -12 -16 -26 -13 -32 4 -6 1 -9 -7 -5 -15 5 -31 -21 -22 -37 4
-5 -1 -6 -9 -3 -9 3 -25 -10 -45 -40 -59 -86 -86 -94 -79 -25 2 24 8 34 20 34
10 0 31 15 48 33 29 32 35 45 30 67 -1 6 1 7 5 3 6 -6 33 18 89 83 16 19 38
44 49 57 l21 22 -23 16 c-13 9 -21 25 -20 37 2 36 0 38 -30 23 -27 -14 -29
-14 -39 7 l-11 22 0 -22 c-1 -12 4 -23 10 -25 7 -2 3 -24 -11 -61 l-22 -57
-29 27 c-22 22 -29 37 -29 67 l0 38 -21 -23 c-14 -17 -22 -20 -25 -11 -3 6
-21 12 -40 12 -19 0 -34 3 -34 8 0 17 31 50 59 61 33 14 49 50 23 53 -10 0
-26 0 -37 -1 -16 -1 -13 3 10 17 21 13 37 17 51 11 26 -9 34 -3 34 27 0 24
-29 40 -62 35 -10 -1 -18 2 -18 7 0 5 -14 12 -30 14 -23 4 -30 1 -28 -11 2
-11 -5 -16 -23 -16 -35 0 -58 -21 -51 -47 4 -17 2 -20 -11 -15 -12 4 -17 1
-17 -11 0 -21 -19 -42 -38 -42 -7 0 -28 -11 -45 -23 -38 -28 -64 -38 -172 -68
-68 -18 -138 -49 -111 -49 5 0 3 -7 -4 -15 -13 -16 -70 -21 -70 -6 0 10 -46
-3 -96 -27 -20 -10 -47 -13 -78 -10 -26 3 -62 2 -80 -2 -29 -6 -38 -3 -68 26
-27 25 -34 39 -31 58 4 21 0 28 -22 36 -30 11 -33 10 -93 -38 -23 -19 -45 -32
-48 -29 -8 8 18 53 70 124 33 46 52 63 68 62 13 0 36 3 51 7 16 4 38 2 50 -4
12 -6 47 -13 77 -16 73 -6 115 -22 135 -52 8 -13 24 -24 35 -24 27 0 36 -20
11 -27 -22 -6 -25 -12 -15 -37 5 -12 10 -13 30 -4 13 6 21 15 18 19 -7 12 10
11 22 0 13 -13 126 14 140 34 6 8 20 15 31 15 10 0 23 4 28 9 6 5 27 14 48 21
27 8 37 16 33 27 -3 8 -6 17 -6 19 0 11 -20 1 -42 -21 -16 -16 -32 -23 -42
-19 -22 9 -14 30 10 27 25 -3 59 44 56 79 -2 22 2 28 17 28 11 0 22 -9 26 -19
3 -10 15 -21 25 -24 11 -3 20 -12 20 -20 0 -14 4 -14 32 0 28 14 29 17 13 23
-12 4 -15 9 -7 14 6 3 9 13 6 20 -3 8 0 17 6 21 9 6 9 10 -1 16 -23 14 -56 10
-63 -7 -6 -15 -8 -15 -24 -1 -17 16 -92 19 -242 9z m175 -12 c3 -5 -1 -10 -10
-10 -9 0 -13 5 -10 10 3 6 8 10 10 10 2 0 7 -4 10 -10z m315 -18 c0 -13 -12
-22 -22 -16 -10 6 -1 24 13 24 5 0 9 -4 9 -8z m17 -48 c-9 -9 -28 6 -21 18 4
6 10 6 17 -1 6 -6 8 -13 4 -17z m-757 12 c0 -3 -4 -8 -10 -11 -5 -3 -10 -1
-10 4 0 6 5 11 10 11 6 0 10 -2 10 -4z m420 0 c0 -2 3 -11 6 -20 5 -12 0 -16
-19 -16 -23 0 -27 8 -18 38 2 4 31 2 31 -2z m-480 -16 c0 -5 -4 -10 -10 -10
-5 0 -10 5 -10 10 0 6 5 10 10 10 6 0 10 -4 10 -10z m170 0 c0 -5 -2 -10 -4
-10 -3 0 -8 5 -11 10 -3 6 -1 10 4 10 6 0 11 -4 11 -10z m207 -26 c-9 -9 -28
6 -21 18 4 6 10 6 17 -1 6 -6 8 -13 4 -17z m-147 -14 c0 -6 -6 -10 -14 -10
-16 0 -38 24 -30 33 9 8 44 -11 44 -23z m-40 -30 c0 -5 -4 -10 -10 -10 -5 0
-10 5 -10 10 0 6 5 10 10 10 6 0 10 -4 10 -10z m506 -40 c20 0 17 -18 -5 -30
-28 -14 -34 -13 -28 9 3 14 1 18 -10 14 -7 -3 -12 -10 -10 -17 6 -17 -22 -41
-34 -29 -12 12 -69 -12 -69 -28 0 -5 -5 -9 -11 -9 -16 0 -6 45 11 45 8 1 14 7
12 14 -2 9 4 12 17 8 12 -3 22 1 25 10 4 9 13 13 22 9 9 -3 25 1 37 9 13 9 23
11 25 5 2 -5 10 -10 18 -10z m-976 -10 c0 -5 -13 -10 -30 -10 -16 0 -30 5 -30
10 0 6 14 10 30 10 17 0 30 -4 30 -10z m-163 -6 c-3 -3 -12 -4 -19 -1 -8 3 -5
6 6 6 11 1 17 -2 13 -5z m1133 -40 c0 -4 -9 -15 -21 -25 -14 -12 -19 -24 -14
-38 10 -34 34 -24 55 22 29 64 26 10 -4 -66 -13 -34 -26 -70 -30 -80 -3 -10
-10 -16 -15 -12 -6 3 -5 21 4 44 12 35 12 41 -4 58 -10 11 -24 29 -30 41 -10
18 -9 22 3 22 9 0 20 9 26 20 10 19 30 28 30 14z m303 -25 c-9 -9 -12 -7 -10
9 1 14 5 18 11 12 7 -7 6 -14 -1 -21z m-566 -5 c-3 -3 -12 -4 -19 -1 -8 3 -5
6 6 6 11 1 17 -2 13 -5z m1196 -9 c7 -16 -8 -29 -23 -20 -15 9 -12 35 4 35 8
0 16 -7 19 -15z m-1783 -5 c0 -5 -9 -10 -19 -10 -11 0 -23 5 -26 10 -4 6 5 10
19 10 14 0 26 -4 26 -10z m994 -6 c9 -3 16 -13 16 -21 0 -20 -34 -12 -38 10
-4 19 -1 20 22 11z m-234 -14 c0 -5 -5 -10 -11 -10 -5 0 -7 5 -4 10 3 6 8 10
11 10 2 0 4 -4 4 -10z m1080 -5 c0 -8 -4 -15 -10 -15 -5 0 -10 7 -10 15 0 8 5
15 10 15 6 0 10 -7 10 -15z m-890 -15 c0 -5 -4 -10 -9 -10 -6 0 -13 5 -16 10
-3 6 1 10 9 10 9 0 16 -4 16 -10z m84 -16 c-4 -15 -2 -29 4 -33 7 -4 8 -12 2
-21 -8 -13 -10 -12 -10 3 0 9 -4 17 -10 17 -14 0 -13 33 2 48 17 17 19 15 12
-14z m606 16 c0 -5 -5 -10 -11 -10 -5 0 -7 5 -4 10 3 6 8 10 11 10 2 0 4 -4 4
-10z m115 -20 c0 -7 -6 -15 -12 -17 -8 -3 -13 4 -13 17 0 13 5 20 13 18 6 -3
12 -11 12 -18z m-1115 0 c0 -5 -7 -10 -15 -10 -8 0 -15 5 -15 10 0 6 7 10 15
10 8 0 15 -4 15 -10z m673 -10 c-3 -11 -11 -16 -19 -13 -12 4 -14 0 -8 -21 5
-21 3 -26 -13 -26 -29 0 -32 7 -14 43 18 37 63 52 54 17z m57 13 c0 -5 -5 -15
-10 -23 -7 -11 -12 -12 -21 -3 -6 6 -8 16 -5 22 8 12 36 15 36 4z m-235 -13
c3 -5 1 -10 -4 -10 -6 0 -11 5 -11 10 0 6 2 10 4 10 3 0 8 -4 11 -10z m545 -9
c0 -27 -17 -35 -23 -11 -5 19 0 30 15 30 4 0 8 -9 8 -19z m166 0 c0 -15 -3
-17 -13 -9 -7 6 -10 14 -7 19 9 15 20 10 20 -10z m-1341 -1 c-3 -5 -10 -10
-16 -10 -5 0 -9 5 -9 10 0 6 7 10 16 10 8 0 12 -4 9 -10z m225 -3 c0 -8 -3
-17 -7 -20 -9 -9 -34 13 -27 24 8 14 34 11 34 -4z m-1410 -7 c0 -5 -7 -10 -15
-10 -8 0 -15 5 -15 10 0 6 7 10 15 10 8 0 15 -4 15 -10z m915 -10 c0 -18 -33
-26 -47 -12 -6 6 -7 15 -3 22 10 16 50 8 50 -10z m297 -2 c-7 -7 -12 -8 -12
-2 0 14 12 26 19 19 2 -3 -1 -11 -7 -17z m128 12 c0 -5 -4 -10 -10 -10 -5 0
-10 5 -10 10 0 6 5 10 10 10 6 0 10 -4 10 -10z m770 -10 c0 -5 -4 -10 -10 -10
-5 0 -10 5 -10 10 0 6 5 10 10 10 6 0 10 -4 10 -10z m-1693 -6 c-3 -3 -12 -4
-19 -1 -8 3 -5 6 6 6 11 1 17 -2 13 -5z m833 2 c0 -3 -4 -8 -10 -11 -5 -3 -10
-1 -10 4 0 6 5 11 10 11 6 0 10 -2 10 -4z m-393 -29 c-5 -15 -20 -18 -37 -7
-13 9 -13 11 -1 19 17 11 43 3 38 -12z m803 13 c0 -5 -4 -10 -10 -10 -5 0 -10
5 -10 10 0 6 5 10 10 10 6 0 10 -4 10 -10z m660 -5 c0 -19 -9 -19 -34 0 -19
14 -19 15 7 15 17 0 27 -5 27 -15z m-230 -16 c0 -5 -4 -9 -10 -9 -5 0 -10 7
-10 16 0 8 5 12 10 9 6 -3 10 -10 10 -16z m25 11 c3 -5 1 -10 -4 -10 -6 0 -11
5 -11 10 0 6 2 10 4 10 3 0 8 -4 11 -10z m-985 -10 c0 -13 -38 -32 -51 -25
-14 10 9 35 32 35 11 0 19 -4 19 -10z m760 0 c0 -5 -2 -10 -4 -10 -3 0 -8 5
-11 10 -3 6 -1 10 4 10 6 0 11 -4 11 -10z m648 -2 c-3 -7 -13 -15 -24 -17 -16
-3 -17 -1 -5 13 16 19 34 21 29 4z m-315 -14 c-3 -8 -14 -19 -24 -24 -14 -8
-20 -6 -28 9 -13 23 -10 25 28 28 23 2 29 -1 24 -13z m-187 -8 c3 -8 15 -13
26 -11 16 4 18 2 8 -10 -7 -8 -17 -12 -24 -8 -6 4 -5 0 2 -9 9 -12 10 -18 2
-23 -8 -5 -6 -11 6 -19 11 -9 14 -19 9 -35 -9 -29 -29 -22 -33 11 -2 14 -11
28 -20 30 -14 4 -17 13 -14 47 4 41 26 57 38 27z m-863 -11 c-4 -15 -36 -12
-41 3 -3 9 3 13 19 10 13 -1 23 -7 22 -13z m387 6 c0 -10 -30 -24 -37 -17 -3
3 -2 9 2 15 8 13 35 15 35 2z m720 -4 c0 -16 -38 -40 -51 -32 -5 4 1 15 13 25
27 23 38 25 38 7z m210 9 c0 -3 -4 -8 -10 -11 -5 -3 -10 -1 -10 4 0 6 5 11 10
11 6 0 10 -2 10 -4z m-785 -26 c3 -5 1 -10 -4 -10 -6 0 -11 5 -11 10 0 6 2 10
4 10 3 0 8 -4 11 -10z m675 -26 c0 -19 -28 -30 -41 -17 -7 7 -5 16 6 27 18 18
35 13 35 -10z m-390 7 c0 -11 -31 -24 -39 -16 -3 3 1 10 9 15 19 12 30 12 30
1z m-1346 -17 c9 -8 16 -19 16 -24 0 -15 -51 -21 -67 -8 -13 11 -12 14 7 30
27 22 25 22 44 2z m636 -3 c0 -21 -14 -34 -42 -38 -11 -2 -18 3 -18 12 0 8 5
15 10 15 6 0 10 7 10 15 0 8 9 15 20 15 13 0 20 -7 20 -19z m597 -3 c-3 -8 -6
-5 -6 6 -1 11 2 17 5 13 3 -3 4 -12 1 -19z m-367 -4 c0 -8 -5 -12 -10 -9 -6 4
-8 11 -5 16 9 14 15 11 15 -7z m140 6 c0 -5 -6 -10 -14 -10 -8 0 -18 5 -21 10
-3 6 3 10 14 10 12 0 21 -4 21 -10z m1240 -7 c-1 -18 -18 -35 -24 -24 -4 6 -4
16 -1 21 7 12 25 13 25 3z m-994 -30 c-10 -10 -19 5 -10 18 6 11 8 11 12 0 2
-7 1 -15 -2 -18z m828 -3 c9 -23 15 -27 24 -18 7 7 12 9 12 6 0 -43 -54 -53
-72 -14 -11 27 -5 56 12 56 6 0 17 -13 24 -30z m-464 10 c0 -5 -4 -10 -10 -10
-5 0 -10 5 -10 10 0 6 5 10 10 10 6 0 10 -4 10 -10z m-830 -15 c0 -8 -7 -15
-15 -15 -16 0 -20 12 -8 23 11 12 23 8 23 -8z m1230 -20 c5 3 3 -8 -3 -25 -13
-35 -27 -39 -27 -8 0 17 -3 19 -12 10 -7 -7 -18 -12 -25 -12 -20 0 -3 29 26
45 22 11 26 11 29 -1 2 -8 7 -12 12 -9z m-1819 -8 c-13 -13 -26 -3 -16 12 3 6
11 8 17 5 6 -4 6 -10 -1 -17z m683 17 c9 -3 16 -13 16 -21 0 -10 9 -13 32 -11
30 3 32 0 34 -27 1 -16 0 -24 -3 -17 -9 24 -23 11 -23 -23 0 -24 5 -35 15 -35
20 0 47 -43 39 -64 -3 -9 -1 -16 5 -16 6 0 11 -5 11 -11 0 -6 -7 -9 -15 -5 -9
3 -20 -3 -27 -14 -7 -11 -18 -20 -25 -20 -13 0 -28 74 -18 90 3 5 -3 10 -14
10 -11 0 -28 11 -37 25 -16 24 -15 38 1 78 5 12 3 17 -8 17 -19 0 -29 24 -14
39 13 13 11 13 31 5z m334 -32 c-2 -11 -13 -17 -31 -17 -15 1 -27 -2 -27 -5 0
-3 -4 -11 -9 -19 -13 -21 -41 3 -41 35 0 29 16 39 36 23 13 -11 18 -10 26 4 7
14 13 15 29 6 11 -6 19 -18 17 -27z m449 8 c3 -37 -12 -48 -27 -20 -9 16 -8
25 1 36 17 21 24 17 26 -16z m231 8 c-2 -14 -11 -22 -28 -25 -19 -2 -21 -1
-10 7 8 5 16 14 16 20 2 18 4 20 15 20 6 0 9 -10 7 -22z m287 12 c3 -5 1 -10
-4 -10 -6 0 -11 5 -11 10 0 6 2 10 4 10 3 0 8 -4 11 -10z m-2165 -9 c0 -6 -4
-12 -9 -15 -13 -8 -42 4 -35 15 7 12 44 12 44 0z m265 -6 c0 -5 -10 -11 -22
-13 -16 -2 -23 2 -23 13 0 11 7 15 23 13 12 -2 22 -7 22 -13z m325 5 c12 -8
11 -10 -7 -10 -12 0 -25 5 -28 10 -8 13 15 13 35 0z m215 -12 c-20 -72 -113
-237 -134 -238 -11 0 -11 4 1 23 9 13 13 37 10 58 -5 45 13 81 37 77 26 -4 77
58 62 76 -9 11 -9 15 1 19 25 10 29 7 23 -15z m450 -3 c0 -13 -8 -21 -22 -23
-17 -3 -23 2 -23 16 0 10 3 22 7 26 13 13 38 1 38 -19z m-575 -15 c0 -5 -2
-10 -4 -10 -3 0 -8 5 -11 10 -3 6 -1 10 4 10 6 0 11 -4 11 -10z m300 -11 c0
-5 -4 -9 -10 -9 -5 0 -10 7 -10 16 0 8 5 12 10 9 6 -3 10 -10 10 -16z m-657
-3 c21 -16 22 -26 1 -26 -8 0 -12 5 -9 10 3 6 -1 10 -9 10 -9 0 -16 5 -16 10
0 13 11 12 33 -4z m1500 -3 c4 -2 7 -13 7 -23 0 -23 -32 -42 -63 -38 -22 3
-26 28 -12 66 4 11 43 9 68 -5z m-2198 -3 c-3 -5 -13 -10 -21 -10 -8 0 -14 5
-14 10 0 6 9 10 21 10 11 0 17 -4 14 -10z m1035 -7 c6 -6 -30 -33 -43 -33 -5
0 -7 9 -4 20 3 10 0 21 -7 24 -6 3 3 3 19 -1 17 -3 32 -8 35 -10z m-250 -3 c0
-5 -7 -10 -15 -10 -8 0 -15 5 -15 10 0 6 7 10 15 10 8 0 15 -4 15 -10z m1081
-33 c-8 -8 -11 -5 -11 9 0 27 14 41 18 19 2 -9 -1 -22 -7 -28z m125 28 c-3 -9
0 -15 10 -15 11 0 14 -8 12 -27 -2 -22 -9 -28 -28 -29 -43 -2 -70 -16 -70 -35
0 -17 -17 -35 -26 -27 -2 3 1 30 7 60 9 43 17 58 33 64 11 4 30 10 41 14 11 5
22 8 24 9 2 1 1 -6 -3 -14z m-2181 -4 c3 -5 1 -13 -5 -16 -15 -9 -43 3 -35 15
8 13 32 13 40 1z m2560 -1 c-27 -12 -43 -12 -25 0 8 5 22 9 30 9 10 0 8 -3 -5
-9z m-625 -15 c0 -8 -4 -15 -8 -15 -5 0 -9 7 -9 15 0 8 4 15 9 15 4 0 8 -7 8
-15z m553 -19 c-15 -13 -38 -26 -50 -30 -13 -4 -23 -11 -23 -14 0 -4 -20 -14
-45 -21 -50 -15 -49 -14 -34 -43 8 -15 8 -23 0 -31 -9 -9 -13 -6 -17 11 -4 13
-14 22 -26 22 -16 0 -17 2 -6 13 21 18 47 34 111 63 31 15 57 31 57 36 0 5 4
7 8 4 4 -2 14 -1 22 5 29 18 31 9 3 -15z m-873 -42 c0 -30 -21 -64 -40 -64
-23 0 -26 96 -3 109 25 14 43 -5 43 -45z m430 31 c12 -22 12 -28 -2 -42 -14
-13 -20 -14 -47 -2 -32 14 -41 29 -18 29 7 0 18 9 25 20 16 26 26 25 42 -5z
m202 10 c0 -5 -5 -11 -11 -13 -6 -2 -11 4 -11 13 0 9 5 15 11 13 6 -2 11 -8
11 -13z m663 -15 c3 -5 1 -10 -4 -10 -6 0 -11 5 -11 10 0 6 2 10 4 10 3 0 8
-4 11 -10z m-1105 -10 c0 -5 -7 -10 -16 -10 -8 0 -12 5 -9 10 3 6 10 10 16 10
5 0 9 -4 9 -10z m-160 -20 c0 -5 -4 -10 -10 -10 -5 0 -10 5 -10 10 0 6 5 10
10 10 6 0 10 -4 10 -10z m90 1 c0 -5 -7 -12 -16 -15 -14 -5 -15 -4 -4 9 14 17
20 19 20 6z m165 -1 c3 -5 1 -10 -4 -10 -6 0 -11 5 -11 10 0 6 2 10 4 10 3 0
8 -4 11 -10z m-35 -25 c0 -8 -4 -15 -10 -15 -5 0 -10 7 -10 15 0 8 5 15 10 15
6 0 10 -7 10 -15z m-1540 -10 c0 -18 -36 -34 -62 -27 -18 4 -24 23 -11 35 3 4
21 7 40 7 23 0 33 -5 33 -15z m1614 -3 c-6 -4 -13 -15 -17 -24 -3 -10 -11 -18
-17 -18 -6 0 -2 14 10 31 12 16 25 27 28 24 4 -3 2 -9 -4 -13z m-1104 -2 c0
-5 -4 -10 -10 -10 -5 0 -10 5 -10 10 0 6 5 10 10 10 6 0 10 -4 10 -10z m2008
-15 c7 -14 12 -32 12 -40 0 -8 5 -15 11 -15 6 0 9 -5 7 -11 -4 -12 -23 -13
-23 -1 0 5 -8 16 -17 26 -18 18 -25 66 -10 66 5 0 14 -11 20 -25z m272 -4 c0
-9 -10 -23 -21 -31 -12 -8 -28 -21 -36 -29 -8 -7 -16 -11 -19 -9 -4 5 22 64
38 85 13 16 38 5 38 -16z m-721 -5 c16 -19 10 -98 -7 -104 -9 -3 -12 3 -10 15
2 11 -3 32 -11 46 -22 41 1 76 28 43z m-1049 -15 c0 -11 -4 -23 -10 -26 -6 -4
-10 5 -10 19 0 14 5 26 10 26 6 0 10 -9 10 -19z m1330 4 c0 -10 -10 -15 -27
-15 l-28 1 25 14 c31 18 30 18 30 0z m250 -6 c0 -5 -7 -9 -15 -9 -15 0 -20 12
-9 23 8 8 24 -1 24 -14z m-1316 -14 c-4 -8 -8 -15 -10 -15 -2 0 -4 7 -4 15 0
8 4 15 10 15 5 0 7 -7 4 -15z m425 -22 c1 5 6 5 11 2 8 -5 7 -12 -2 -22 -11
-13 -13 -13 -19 4 -4 10 -7 27 -7 38 0 16 2 15 8 -5 4 -14 8 -21 9 -17z m701
12 c0 -14 -27 -39 -52 -48 -27 -9 -24 38 3 57 23 16 49 11 49 -9z m-535 -5
c-16 -18 -65 -24 -65 -9 0 5 7 9 15 9 8 0 15 4 15 9 0 5 11 9 25 9 24 0 25 -2
10 -18z m305 12 c0 -8 -37 -42 -45 -42 -14 0 -2 39 13 43 28 8 32 7 32 -1z
m-832 -48 c2 -28 -3 -48 -16 -64 l-19 -24 -13 23 c-7 15 -10 39 -5 68 5 38 9
44 28 41 18 -2 23 -11 25 -44z m290 -1 c3 -45 -9 -60 -52 -65 -28 -3 -30 -1
-32 35 -3 36 -1 39 20 33 20 -5 25 -1 30 20 10 37 31 24 34 -23z m-603 -4 c-8
-23 -8 -23 -15 -4 -9 26 -1 50 12 37 6 -6 7 -21 3 -33z m-205 1 c0 -5 -5 -10
-11 -10 -5 0 -7 5 -4 10 3 6 8 10 11 10 2 0 4 -4 4 -10z m982 -23 c7 -7 21
-16 31 -20 11 -4 17 -15 15 -24 -4 -23 -46 -30 -54 -9 -5 12 -10 13 -30 4 -27
-13 -47 -2 -24 12 8 6 11 10 6 10 -5 0 -1 9 9 20 21 23 29 25 47 7z m-142 -32
c0 -35 -12 -43 -39 -26 -11 7 -10 11 7 20 13 7 19 17 16 26 -4 8 -1 15 5 15 6
0 11 -16 11 -35z m1250 11 c0 -8 -4 -17 -9 -21 -12 -7 -24 12 -16 25 9 15 25
12 25 -4z m-950 -10 c0 -21 -21 -31 -30 -15 -5 7 -6 17 -4 21 9 14 34 9 34 -6z
m-1290 0 c0 -3 -4 -8 -10 -11 -5 -3 -10 -1 -10 4 0 6 5 11 10 11 6 0 10 -2 10
-4z m1810 -11 c0 -8 -3 -15 -7 -16 -5 0 -18 -2 -30 -5 -27 -5 -30 11 -5 25 25
15 42 13 42 -4z m-552 -17 c7 -7 12 -31 12 -55 l0 -43 -25 16 c-33 22 -45 45
-38 72 6 24 32 29 51 10z m442 2 c0 -5 -2 -10 -4 -10 -3 0 -8 5 -11 10 -3 6
-1 10 4 10 6 0 11 -4 11 -10z m362 -15 c4 -20 3 -23 -8 -14 -16 13 -19 39 -5
39 5 0 11 -11 13 -25z m-952 0 c0 -8 -73 -51 -97 -57 -19 -5 -20 -4 -10 13 6
10 21 19 32 19 11 1 31 7 45 15 28 16 30 17 30 10z m397 -32 c-3 -3 -11 -2
-17 2 -8 5 -7 11 2 22 12 15 13 14 16 -1 2 -10 1 -20 -1 -23z m457 21 c9 -24
7 -34 -8 -34 -16 0 -29 27 -20 41 8 14 21 11 28 -7z m-357 -11 c6 -16 -28 -53
-48 -53 -15 0 -10 32 8 52 20 22 32 23 40 1z m708 -22 c-3 -12 -13 -21 -21
-21 -17 0 -19 31 -2 48 17 17 32 -1 23 -27z m-940 20 c3 -5 1 -12 -5 -16 -5
-3 -10 1 -10 9 0 18 6 21 15 7z m745 5 c0 -3 -4 -8 -10 -11 -5 -3 -10 -1 -10
4 0 6 5 11 10 11 6 0 10 -2 10 -4z m-2152 -17 c-2 -6 -8 -10 -13 -10 -5 0 -11
4 -13 10 -2 6 4 11 13 11 9 0 15 -5 13 -11z m962 7 c0 -2 -12 -11 -27 -20
l-28 -17 24 20 c23 21 31 25 31 17z m-422 -27 c2 -10 -44 -64 -112 -135 -64
-66 -116 -114 -116 -107 0 6 8 18 18 25 39 29 186 202 175 205 -18 6 -3 35 16
31 9 -2 17 -11 19 -19z m562 -14 c0 -16 -6 -25 -16 -25 -11 0 -14 5 -10 16 3
9 6 20 6 25 0 5 5 9 10 9 6 0 10 -11 10 -25z m708 -7 c-3 -7 -13 -15 -24 -17
-16 -3 -17 -1 -5 13 16 19 34 21 29 4z m-548 -23 c0 -8 -4 -15 -10 -15 -5 0
-10 7 -10 15 0 8 5 15 10 15 6 0 10 -7 10 -15z m448 -2 c-2 -9 -8 -18 -15 -20
-7 -3 -9 3 -6 16 6 25 26 28 21 4z m-3438 -8 c0 -8 -7 -15 -16 -15 -14 0 -14
3 -4 15 7 8 14 15 16 15 2 0 4 -7 4 -15z m3180 8 c0 -5 -5 -15 -10 -23 -8 -12
-10 -11 -10 8 0 12 5 22 10 22 6 0 10 -3 10 -7z m90 -13 c0 -5 -7 -10 -15 -10
-8 0 -15 5 -15 10 0 6 7 10 15 10 8 0 15 -4 15 -10z m330 -5 c0 -8 -2 -15 -4
-15 -2 0 -12 -3 -21 -7 -15 -5 -16 -3 -6 15 13 25 31 29 31 7z m375 -15 c3
-10 1 -29 -5 -40 -13 -24 -4 -42 10 -20 5 8 12 11 15 8 4 -4 3 -13 -1 -20 -5
-7 -10 -22 -11 -32 -4 -26 -29 -53 -54 -59 -15 -4 -19 -2 -15 10 17 42 17 63
2 78 -18 19 -20 34 -6 69 12 32 55 36 65 6z m-1252 3 c-7 -2 -19 -2 -25 0 -7
3 -2 5 12 5 14 0 19 -2 13 -5z m1298 -36 c-10 -9 -11 -8 -5 6 3 10 9 15 12 12
3 -3 0 -11 -7 -18z m79 8 c0 -8 -7 -15 -15 -15 -9 0 -12 6 -9 15 4 8 10 15 15
15 5 0 9 -7 9 -15z m50 5 c0 -5 -4 -10 -10 -10 -5 0 -10 5 -10 10 0 6 5 10 10
10 6 0 10 -4 10 -10z m-1050 -16 c0 -8 -5 -12 -10 -9 -6 4 -8 11 -5 16 9 14
15 11 15 -7z m-310 -9 c0 -8 -7 -15 -15 -15 -8 0 -15 7 -15 15 0 8 7 15 15 15
8 0 15 -7 15 -15z m115 5 c-3 -5 -11 -10 -16 -10 -6 0 -7 5 -4 10 3 6 11 10
16 10 6 0 7 -4 4 -10z m-395 -24 c0 -3 -4 -8 -10 -11 -5 -3 -10 -1 -10 4 0 6
5 11 10 11 6 0 10 -2 10 -4z m1555 -34 c-15 -16 -16 -15 -4 12 7 15 15 23 17
16 3 -7 -3 -19 -13 -28z m-1030 -11 c3 -5 1 -12 -5 -16 -5 -3 -10 1 -10 9 0
18 6 21 15 7z m245 -31 c0 -10 -4 -22 -10 -25 -6 -4 -10 7 -10 25 0 18 4 29
10 25 6 -3 10 -15 10 -25z m180 20 c0 -5 -5 -10 -11 -10 -5 0 -7 5 -4 10 3 6
8 10 11 10 2 0 4 -4 4 -10z m-250 -10 c0 -5 -5 -10 -11 -10 -5 0 -7 5 -4 10 3
6 8 10 11 10 2 0 4 -4 4 -10z m395 1 c3 -5 1 -12 -5 -16 -5 -3 -10 1 -10 9 0
18 6 21 15 7z m436 -28 c-8 -15 -10 -15 -11 -2 0 17 10 32 18 25 2 -3 -1 -13
-7 -23z m-1306 8 c7 -12 -12 -24 -25 -16 -11 7 -4 25 10 25 5 0 11 -4 15 -9z
m1384 -60 c-11 -22 -25 -41 -30 -41 -9 0 14 53 34 78 19 25 18 4 -4 -37z
m-149 29 c0 -5 -4 -10 -10 -10 -5 0 -10 5 -10 10 0 6 5 10 10 10 6 0 10 -4 10
-10z m-570 -16 c0 -8 -5 -12 -10 -9 -6 4 -8 11 -5 16 9 14 15 11 15 -7z m-150
-30 c0 -8 -9 -14 -20 -14 -22 0 -28 26 -7 33 16 6 27 -1 27 -19z m641 -6 c16
-18 29 -36 29 -40 0 -14 -21 -8 -27 7 -3 9 -15 15 -27 13 -16 -2 -22 3 -24 25
-4 36 14 35 49 -5z m419 -3 c0 -8 -4 -15 -10 -15 -5 0 -10 7 -10 15 0 8 5 15
10 15 6 0 10 -7 10 -15z m-1780 -25 c0 -5 -7 -10 -16 -10 -8 0 -12 5 -9 10 3
6 10 10 16 10 5 0 9 -4 9 -10z m1520 0 c0 -5 -4 -10 -10 -10 -5 0 -10 5 -10
10 0 6 5 10 10 10 6 0 10 -4 10 -10z m160 -29 c13 -26 13 -27 -9 -27 -13 0
-18 7 -18 23 0 28 13 30 27 4z m-2330 -1 c0 -5 -7 -10 -16 -10 -8 0 -12 5 -9
10 3 6 10 10 16 10 5 0 9 -4 9 -10z m1700 -30 c0 -11 -4 -20 -10 -20 -5 0 -10
7 -10 16 0 8 -4 12 -10 9 -5 -3 -10 -1 -10 4 0 6 9 11 20 11 13 0 20 -7 20
-20z m-110 0 c0 -5 -7 -10 -16 -10 -8 0 -12 5 -9 10 3 6 10 10 16 10 5 0 9 -4
9 -10z m544 -22 c9 -12 16 -29 16 -36 0 -8 7 -29 16 -48 19 -39 12 -59 -7 -22
-6 12 -25 38 -40 56 -31 35 -38 72 -15 72 8 0 22 -10 30 -22z m-1424 2 c0 -5
-4 -10 -10 -10 -5 0 -10 5 -10 10 0 6 5 10 10 10 6 0 10 -4 10 -10z m477 -12
c-3 -8 -6 -5 -6 6 -1 11 2 17 5 13 3 -3 4 -12 1 -19z m743 -11 c0 -18 -2 -19
-10 -7 -13 20 -13 43 0 35 6 -3 10 -16 10 -28z m250 19 c0 -8 -4 -18 -10 -21
-5 -3 -10 3 -10 14 0 12 5 21 10 21 6 0 10 -6 10 -14z m-328 -28 c-7 -7 -12
-8 -12 -2 0 14 12 26 19 19 2 -3 -1 -11 -7 -17z m-1322 -33 c-7 -8 -16 -12
-21 -9 -13 8 -1 24 18 24 13 0 13 -3 3 -15z m600 6 c0 -5 -7 -14 -15 -21 -16
-14 -18 -10 -9 14 6 17 24 22 24 7z m-758 -33 c-7 -7 -12 -8 -12 -2 0 6 3 14
7 17 3 4 9 5 12 2 2 -3 -1 -11 -7 -17z m728 -33 c0 -14 21 -25 50 -25 10 0 47
-9 82 -20 162 -50 270 -176 312 -366 26 -116 38 -337 38 -699 1 -497 -19 -686
-87 -830 -66 -140 -191 -223 -367 -244 -104 -13 -486 -31 -681 -32 -81 0 -149
-4 -152 -9 -3 -4 -29 -6 -57 -4 -29 2 -226 8 -438 14 -468 13 -613 18 -631 24
-39 13 -120 12 -130 0 -12 -15 -39 -19 -39 -6 0 4 5 13 12 20 9 9 8 12 -7 12
-38 0 -146 60 -200 111 l-54 51 -15 -30 c-18 -35 -43 -47 -62 -31 -19 16 -17
32 8 64 l22 28 -28 -7 -28 -7 29 36 30 36 -24 82 c-35 120 -47 296 -47 705 -1
199 -4 350 -7 334 -8 -38 -17 -52 -35 -52 -23 0 -16 42 13 72 29 30 41 85 42
193 2 89 36 230 76 311 64 130 191 222 340 244 280 40 1493 49 1926 14 73 -6
76 -6 82 16 6 23 27 19 27 -5z m725 -44 c3 -10 13 -18 22 -17 24 2 27 -28 7
-58 -22 -34 -31 -33 -32 5 0 17 -7 38 -15 48 -15 16 -13 41 3 41 5 0 11 -8 15
-19z m-305 -30 c0 -6 -4 -13 -10 -16 -5 -3 -10 1 -10 9 0 9 5 16 10 16 6 0 10
-4 10 -9z m560 -39 c0 -15 -2 -15 -10 -2 -13 20 -13 33 0 25 6 -3 10 -14 10
-23z m-490 -6 c0 -3 -4 -8 -10 -11 -5 -3 -10 -1 -10 4 0 6 5 11 10 11 6 0 10
-2 10 -4z m970 -8 c0 -7 -5 -20 -10 -28 -8 -12 -10 -9 -10 13 0 15 5 27 10 27
6 0 10 -6 10 -12z m-582 -80 c-4 -27 -28 -36 -28 -10 0 20 8 32 22 32 5 0 8
-10 6 -22z m-438 -28 c0 -5 -5 -10 -11 -10 -5 0 -7 5 -4 10 3 6 8 10 11 10 2
0 4 -4 4 -10z m110 -25 c0 -8 -4 -15 -10 -15 -5 0 -10 7 -10 15 0 8 5 15 10
15 6 0 10 -7 10 -15z m-32 -58 c3 -29 0 -37 -13 -37 -9 0 -13 -4 -10 -10 3 -5
-1 -10 -11 -10 -14 0 -16 7 -10 38 3 20 6 43 6 50 0 8 8 12 18 10 12 -2 18
-14 20 -41z m338 28 c4 -9 -5 -33 -19 -53 -14 -21 -26 -46 -28 -56 -5 -21 -25
-17 -22 4 10 85 52 149 69 105z m654 -27 c0 -16 -3 -19 -11 -11 -6 6 -8 16 -5
22 11 17 16 13 16 -11z m-183 -20 c-3 -8 -6 -5 -6 6 -1 11 2 17 5 13 3 -3 4
-12 1 -19z m39 -15 c-10 -10 -19 5 -10 18 6 11 8 11 12 0 2 -7 1 -15 -2 -18z
m-841 -23 c3 -5 1 -10 -4 -10 -6 0 -11 5 -11 10 0 6 2 10 4 10 3 0 8 -4 11
-10z m-3217 -27 c-14 -16 -40 -52 -58 -80 -17 -29 -36 -53 -41 -53 -11 0 -12
17 -1 22 5 2 22 23 39 48 34 50 70 90 80 90 4 0 -5 -12 -19 -27z m4239 -25
c-3 -8 -6 -5 -6 6 -1 11 2 17 5 13 3 -3 4 -12 1 -19z m-237 -17 c0 -6 -4 -13
-10 -16 -5 -3 -10 1 -10 9 0 9 5 16 10 16 6 0 10 -4 10 -9z m-4657 -61 c-3
-11 -7 -20 -9 -20 -2 0 -4 9 -4 20 0 11 4 20 9 20 5 0 7 -9 4 -20z m33 -17
c-10 -10 -19 5 -10 18 6 11 8 11 12 0 2 -7 1 -15 -2 -18z m810 -37 c-14 -19
-33 -53 -42 -77 -10 -24 -29 -62 -44 -84 -43 -65 -86 -147 -100 -190 -7 -22
-21 -56 -31 -75 -9 -19 -36 -73 -58 -120 -23 -47 -50 -95 -61 -108 -27 -33
-42 -19 -24 23 7 18 11 40 9 48 -3 7 6 26 21 42 15 16 36 50 47 75 11 25 28
54 38 66 10 11 51 83 90 160 64 125 111 210 158 284 13 22 16 23 19 7 2 -10
-8 -33 -22 -51z m-676 44 c0 -5 -5 -10 -11 -10 -5 0 -7 5 -4 10 3 6 8 10 11
10 2 0 4 -4 4 -10z m4688 -130 c2 -13 -1 -32 -6 -44 -6 -12 -13 -28 -15 -36
-2 -8 -8 6 -12 32 -4 26 -4 55 -1 64 8 22 30 12 34 -16z m-5018 -24 c0 -8 -4
-17 -9 -21 -12 -7 -24 12 -16 25 9 15 25 12 25 -4z m281 -125 c-17 -43 -35
-107 -40 -143 -14 -85 -28 -124 -63 -175 -31 -47 -48 -54 -48 -23 0 11 7 20
15 20 10 0 15 10 14 33 -1 20 -3 25 -6 13 -4 -16 -8 -11 -19 19 -18 54 -9 85
25 85 35 0 71 66 100 179 11 46 26 90 33 99 26 31 20 -26 -11 -107z m738 89
c-11 -30 -29 -41 -29 -18 0 10 28 48 36 48 2 0 -2 -13 -7 -30z m4031 -40 c0
-11 -4 -20 -10 -20 -5 0 -10 9 -10 20 0 11 5 20 10 20 6 0 10 -9 10 -20z
m-4628 -22 c-7 -7 -12 -8 -12 -2 0 14 12 26 19 19 2 -3 -1 -11 -7 -17z m-346
-73 c-33 -31 -36 -31 -36 -2 0 13 9 26 23 33 35 16 44 -3 13 -31z m624 26 c0
-6 -4 -13 -10 -16 -5 -3 -10 1 -10 9 0 9 5 16 10 16 6 0 10 -4 10 -9z m-324
-87 c-6 -30 -13 -40 -23 -31 -6 6 15 57 24 57 2 0 1 -12 -1 -26z m4231 -6 c-3
-8 -6 -5 -6 6 -1 11 2 17 5 13 3 -3 4 -12 1 -19z m-4736 -11 c-10 -9 -11 -8
-5 6 3 10 9 15 12 12 3 -3 0 -11 -7 -18z m182 -17 c-8 -30 -21 -34 -15 -5 2
14 8 25 12 25 5 0 6 -9 3 -20z m67 -34 c0 -16 -24 -38 -33 -30 -8 9 11 44 23
44 6 0 10 -6 10 -14z m-80 -27 c6 -11 10 -37 9 -57 -2 -21 0 -42 3 -47 8 -13
-9 -55 -21 -55 -7 0 -8 -17 -4 -46 5 -41 3 -48 -26 -78 -17 -18 -29 -34 -27
-37 2 -2 -9 -4 -25 -5 -22 -1 -35 6 -51 29 -19 27 -20 34 -10 73 7 24 9 50 6
58 -3 7 -1 17 5 21 6 3 11 0 11 -7 0 -14 17 9 49 65 12 21 19 42 16 47 -3 4 2
10 10 14 8 3 15 15 15 26 0 26 26 26 40 -1z m572 -7 c7 -26 -8 -59 -35 -77
-30 -19 -57 -10 -58 21 -1 13 -2 29 -3 36 -1 15 41 38 70 38 12 0 24 -8 26
-18z m270 -14 c-7 -7 -12 -8 -12 -2 0 14 12 26 19 19 2 -3 -1 -11 -7 -17z
m-552 -79 c0 -15 -7 -32 -16 -39 -8 -8 -21 -28 -29 -47 -16 -37 -34 -43 -42
-13 -11 40 -23 7 -17 -44 l6 -54 -27 5 c-41 8 -41 28 3 96 22 34 50 81 62 104
20 36 25 40 41 30 11 -7 19 -23 19 -38z m96 4 c-11 -11 -19 6 -11 24 8 17 8
17 12 0 3 -10 2 -21 -1 -24z m-58 -15 c-2 -6 -10 -14 -16 -16 -7 -2 -10 2 -6
12 7 18 28 22 22 4z m79 -35 c-3 -3 -11 -2 -17 2 -8 5 -7 11 2 22 12 15 13 14
16 -1 2 -10 1 -20 -1 -23z m439 12 c-3 -9 -11 -13 -16 -10 -8 5 -7 11 1 21 14
18 24 11 15 -11z m-496 -49 c0 -39 -24 -66 -42 -48 -9 9 -8 20 5 47 21 44 37
45 37 1z m640 30 c0 -11 -19 -15 -25 -6 -3 5 1 10 9 10 9 0 16 -2 16 -4z
m-458 -78 c-7 -7 -12 -8 -12 -2 0 14 12 26 19 19 2 -3 -1 -11 -7 -17z m228
-18 c0 -5 -5 -10 -11 -10 -5 0 -7 5 -4 10 3 6 8 10 11 10 2 0 4 -4 4 -10z
m-395 -42 c-2 -13 -8 -22 -14 -20 -6 1 -11 -9 -11 -23 0 -14 -4 -25 -9 -25 -5
0 -9 18 -9 39 -1 38 3 43 39 50 3 0 5 -9 4 -21z m-278 -47 c-9 -33 -8 -43 5
-58 24 -28 28 -63 12 -95 -26 -50 -39 -29 -38 60 0 45 -3 82 -8 82 -14 0 -9
28 8 44 24 25 32 11 21 -33z m744 16 c-16 -16 -26 0 -10 19 9 11 15 12 17 4 2
-6 -1 -17 -7 -23z m-191 -11 c0 -15 -18 -31 -26 -23 -7 7 7 37 17 37 5 0 9 -6
9 -14z m-627 -29 c3 -7 -1 -21 -9 -32 -8 -10 -14 -26 -14 -35 0 -9 -6 -22 -12
-28 -7 -7 -13 -18 -13 -24 0 -14 -32 -34 -41 -25 -4 3 -2 12 4 19 7 9 7 18 -3
31 -19 26 11 99 38 91 9 -3 17 -1 17 5 0 15 27 14 33 -2z m137 -4 c0 -14 -19
-38 -25 -32 -8 8 5 39 16 39 5 0 9 -3 9 -7z m418 -35 c-2 -22 -9 -34 -21 -36
-25 -5 -32 25 -12 48 26 29 37 25 33 -12z m-681 14 c17 -11 -4 -92 -25 -92 -8
0 -21 -8 -28 -17 -12 -16 -13 -13 -11 23 3 40 29 94 45 94 4 0 12 -4 19 -8z
m536 -49 c-3 -27 -7 -55 -10 -63 -4 -8 -6 -18 -5 -21 1 -4 -7 -14 -17 -23 -20
-18 -51 -12 -51 9 0 26 38 102 54 108 9 4 16 13 16 22 0 8 4 15 9 15 5 0 6
-21 4 -47z m417 -25 c-28 -35 -63 -78 -77 -95 -36 -45 -41 -34 -6 14 38 53
127 153 131 148 2 -2 -19 -32 -48 -67z m-780 43 c0 -6 -4 -13 -10 -16 -5 -3
-10 1 -10 9 0 9 5 16 10 16 6 0 10 -4 10 -9z m160 -50 c-14 -34 -27 -40 -36
-16 -9 22 25 70 38 57 8 -8 7 -20 -2 -41z m-40 35 c0 -3 -4 -8 -10 -11 -5 -3
-10 -1 -10 4 0 6 5 11 10 11 6 0 10 -2 10 -4z m436 -41 c-3 -9 -11 -13 -16
-10 -8 5 -7 11 1 21 14 18 24 11 15 -11z m-609 -55 c-15 -53 -37 -65 -37 -20
0 33 30 83 42 71 5 -4 2 -27 -5 -51z m473 45 c0 -16 -27 -32 -37 -22 -3 4 -3
13 0 22 8 20 37 20 37 0z m-270 -35 c0 -5 -5 -10 -11 -10 -5 0 -7 5 -4 10 3 6
8 10 11 10 2 0 4 -4 4 -10z m100 6 c0 -3 -4 -8 -10 -11 -5 -3 -10 -1 -10 4 0
6 5 11 10 11 6 0 10 -2 10 -4z m-183 -34 c-10 -10 -17 -22 -17 -25 0 -4 -7
-15 -16 -24 -8 -10 -24 -29 -34 -43 -17 -21 -21 -23 -30 -10 -17 26 -12 52 9
45 13 -4 28 7 56 40 20 25 40 44 43 41 3 -3 -2 -14 -11 -24z m413 -32 c-6 -16
-18 -31 -25 -34 -7 -2 -16 -18 -20 -35 -4 -17 -11 -33 -15 -36 -5 -3 -18 -25
-29 -49 -31 -72 -62 -78 -37 -7 7 23 12 49 9 59 -2 9 3 26 11 37 15 19 15 19
16 1 0 -16 2 -16 16 -5 8 7 25 31 36 53 11 23 25 47 31 55 17 20 21 -4 7 -39z
m80 26 c0 -16 -18 -31 -27 -22 -8 8 5 36 17 36 5 0 10 -6 10 -14z m-390 -20
c0 -17 -24 -38 -33 -29 -15 15 -6 43 13 43 11 0 20 -6 20 -14z m-190 0 c0 -3
-4 -8 -10 -11 -5 -3 -10 -1 -10 4 0 6 5 11 10 11 6 0 10 -2 10 -4z m230 0 c0
-3 -4 -8 -10 -11 -5 -3 -10 -1 -10 4 0 6 5 11 10 11 6 0 10 -2 10 -4z m203
-16 c-3 -11 -10 -23 -16 -27 -7 -4 -8 0 -4 11 4 10 7 22 7 27 0 5 4 9 9 9 5 0
7 -9 4 -20z m-253 -49 c0 -32 -11 -51 -30 -51 -10 0 -22 -9 -25 -20 -8 -24
-18 -25 -35 -5 -19 23 38 87 83 94 4 0 7 -8 7 -18z m40 10 c0 -6 -4 -13 -10
-16 -5 -3 -10 1 -10 9 0 9 5 16 10 16 6 0 10 -4 10 -9z m477 -47 c-3 -3 -21
-7 -39 -7 -23 -2 -33 2 -33 13 0 8 8 15 17 15 10 0 23 6 30 13 10 10 15 9 22
-8 5 -11 6 -23 3 -26z m-437 26 c0 -5 -5 -10 -11 -10 -5 0 -7 5 -4 10 3 6 8
10 11 10 2 0 4 -4 4 -10z m30 0 c0 -5 -4 -10 -10 -10 -5 0 -10 5 -10 10 0 6 5
10 10 10 6 0 10 -4 10 -10z m198 -23 c-7 -14 -13 -17 -16 -9 -6 19 6 44 18 37
7 -4 6 -14 -2 -28z m249 -36 c-13 -28 -40 -35 -44 -11 -2 8 6 31 18 50 22 35
22 35 30 11 6 -15 5 -32 -4 -50z m-404 27 c7 -24 -8 -48 -28 -48 -7 0 -15 11
-17 24 -8 43 35 65 45 24z m217 13 c0 -12 -26 -32 -33 -25 -9 10 4 34 19 34 8
0 14 -4 14 -9z m353 -22 c-6 -23 -19 -25 -27 -3 -8 21 1 34 18 28 8 -3 12 -14
9 -25z m-656 -3 c-4 -9 -13 -13 -22 -10 -14 6 -13 8 2 19 21 16 28 12 20 -9z
m533 -7 c0 -11 -4 -18 -10 -14 -5 3 -7 12 -3 20 7 21 13 19 13 -6z m-730 -3
c0 -2 -7 -9 -15 -16 -13 -11 -14 -10 -9 4 5 14 24 23 24 12z m420 -36 c0 -11
-7 -20 -15 -20 -17 0 -18 2 -9 24 9 23 24 20 24 -4z m-151 -52 c1 -4 -6 -14
-15 -23 -12 -12 -19 -13 -30 -4 -11 9 -9 16 9 40 19 26 22 28 29 12 3 -10 7
-21 7 -25z m636 -4 c-17 -13 -38 -29 -47 -34 -31 -19 -10 13 29 43 44 33 59
26 18 -9z m-308 4 c-3 -8 -6 -5 -6 6 -1 11 2 17 5 13 3 -3 4 -12 1 -19z m-787
2 c0 -5 -4 -10 -10 -10 -5 0 -10 5 -10 10 0 6 5 10 10 10 6 0 10 -4 10 -10z
m200 -60 c0 -5 -4 -10 -10 -10 -5 0 -10 5 -10 10 0 6 5 10 10 10 6 0 10 -4 10
-10z m313 -25 c-40 -39 -40 -39 -48 -26 -5 9 60 61 77 61 4 0 -9 -16 -29 -35z
m57 5 c0 -5 -5 -10 -11 -10 -5 0 -7 5 -4 10 3 6 8 10 11 10 2 0 4 -4 4 -10z
m319 -4 c9 -11 8 -15 -4 -20 -8 -3 -15 -9 -14 -13 3 -20 -2 -33 -13 -33 -9 0
-9 3 0 12 9 9 8 14 -4 22 -9 7 -12 18 -8 29 7 21 27 22 43 3z m126 5 c7 -12
-15 -61 -28 -61 -5 0 -7 9 -4 21 8 29 -4 21 -62 -42 -34 -38 -51 -65 -51 -83
0 -29 -25 -45 -43 -27 -14 14 -27 14 -27 1 0 -6 -8 -23 -17 -37 -10 -15 -18
-36 -18 -48 0 -29 -19 -25 -19 5 -1 21 -5 25 -28 22 -31 -3 -36 14 -18 49 11
19 4 24 -28 20 -8 -1 -16 7 -19 17 -3 11 -14 23 -25 25 -21 6 -16 29 5 26 7
-1 20 1 30 6 13 5 23 2 34 -14 14 -21 16 -21 34 -5 24 22 31 15 31 -30 0 -20
3 -36 7 -36 10 1 41 27 36 31 -2 3 -6 37 -9 77 -4 71 6 97 18 45 3 -16 14 -39
25 -53 19 -24 20 -24 40 -6 12 11 21 27 21 38 0 17 10 22 36 19 6 -1 21 10 34
24 25 27 35 30 45 16z m120 -10 c-3 -6 -11 -11 -17 -11 -6 0 -6 6 2 15 14 17
26 13 15 -4z m-518 -36 c-13 -27 -37 -34 -37 -10 0 8 7 15 15 15 8 0 15 5 15
10 0 6 4 10 9 10 5 0 4 -11 -2 -25z m76 5 c3 -11 1 -20 -4 -20 -5 0 -9 9 -9
20 0 11 2 20 4 20 2 0 6 -9 9 -20z m401 -5 c-4 -9 -16 -21 -28 -27 -19 -10
-19 -9 3 16 28 30 33 32 25 11z m-494 -45 c0 -5 -5 -10 -11 -10 -5 0 -7 5 -4
10 3 6 8 10 11 10 2 0 4 -4 4 -10z m400 1 c0 -6 -4 -13 -10 -16 -5 -3 -10 1
-10 9 0 9 5 16 10 16 6 0 10 -4 10 -9z m50 -10 c0 -12 -20 -25 -27 -18 -7 7 6
27 18 27 5 0 9 -4 9 -9z m-470 -32 c0 -11 -4 -17 -10 -14 -5 3 -10 13 -10 21
0 8 5 14 10 14 6 0 10 -9 10 -21z m460 -93 c0 -22 -29 -41 -42 -28 -8 8 -8 15
2 27 16 19 40 20 40 1z m-160 -30 c0 -3 -4 -8 -10 -11 -5 -3 -10 -1 -10 4 0 6
5 11 10 11 6 0 10 -2 10 -4z m-160 -26 c0 -5 -5 -10 -11 -10 -5 0 -7 5 -4 10
3 6 8 10 11 10 2 0 4 -4 4 -10z m472 -42 c-7 -7 -12 -8 -12 -2 0 6 3 14 7 17
3 4 9 5 12 2 2 -3 -1 -11 -7 -17z m-472 -2 c0 -8 3 -16 8 -19 4 -2 2 -2 -5 -1
-7 2 -15 -1 -18 -6 -9 -14 -25 -12 -25 3 0 14 20 37 32 37 4 0 8 -6 8 -14z
m130 -8 c0 -24 -27 -58 -45 -58 -30 0 -24 61 7 73 27 11 38 6 38 -15z m220 3
c0 -13 -26 -32 -33 -24 -8 7 11 33 24 33 5 0 9 -4 9 -9z m230 -11 c0 -5 -4
-10 -10 -10 -5 0 -10 5 -10 10 0 6 5 10 10 10 6 0 10 -4 10 -10z m-60 -20 c0
-11 -4 -20 -10 -20 -5 0 -10 9 -10 20 0 11 5 20 10 20 6 0 10 -9 10 -20z
m-220 0 c0 -5 -4 -10 -10 -10 -5 0 -10 5 -10 10 0 6 5 10 10 10 6 0 10 -4 10
-10z m328 -12 c-2 -13 -7 -23 -13 -23 -5 0 -11 10 -13 23 -2 15 2 22 13 22 11
0 15 -7 13 -22z m-373 -20 c-19 -11 -30 -5 -21 11 4 6 14 7 22 4 15 -5 14 -7
-1 -15z m585 13 c0 -5 -7 -12 -16 -15 -22 -9 -24 -8 -24 9 0 8 9 15 20 15 11
0 20 -4 20 -9z m-810 -8 c-1 -25 -14 -53 -26 -53 -18 0 -19 46 -1 53 19 8 27
8 27 0z m138 -32 c-6 -22 -26 -59 -46 -82 l-36 -42 -23 27 c-26 30 -33 77 -9
57 10 -9 17 -6 29 13 9 13 33 33 54 44 21 11 39 20 39 21 1 0 -3 -17 -8 -38z
m756 24 c-6 -16 -24 -21 -24 -7 0 11 11 22 21 22 5 0 6 -7 3 -15z m1261 5 c3
-5 -1 -10 -10 -10 -9 0 -13 5 -10 10 3 6 8 10 10 10 2 0 7 -4 10 -10z m-1725
-10 c0 -5 -2 -10 -4 -10 -3 0 -8 5 -11 10 -3 6 -1 10 4 10 6 0 11 -4 11 -10z
m710 6 c0 -2 -7 -7 -16 -10 -8 -3 -12 -2 -9 4 6 10 25 14 25 6z m174 -11 c-4
-8 -8 -15 -10 -15 -2 0 -4 7 -4 15 0 8 4 15 10 15 5 0 7 -7 4 -15z m1001 6
c-16 -15 -48 -17 -52 -3 -3 8 6 12 28 12 20 0 29 -4 24 -9z m-2055 -32 c0 -11
-4 -18 -10 -14 -5 3 -7 12 -3 20 7 21 13 19 13 -6z m2230 11 c0 -5 -4 -10 -10
-10 -5 0 -10 5 -10 10 0 6 5 10 10 10 6 0 10 -4 10 -10z m-1430 -31 c0 -5 -7
-9 -15 -9 -15 0 -20 12 -9 23 8 8 24 -1 24 -14z m170 2 c0 -6 -4 -13 -10 -16
-5 -3 -10 1 -10 9 0 9 5 16 10 16 6 0 10 -4 10 -9z m620 -1 c0 -5 -7 -10 -16
-10 -8 0 -12 5 -9 10 3 6 10 10 16 10 5 0 9 -4 9 -10z m-1570 -20 c0 -26 -38
-79 -60 -86 -14 -3 -20 -8 -14 -11 7 -2 10 -12 7 -22 -6 -23 14 -38 30 -22 18
18 31 12 14 -6 -8 -10 -17 -29 -19 -42 -4 -34 -35 -51 -52 -29 -9 12 -16 14
-23 7 -7 -7 -13 -7 -17 -1 -4 6 2 17 12 24 9 7 19 25 20 41 1 15 3 41 5 58 1
17 9 36 18 42 9 7 21 22 28 35 11 21 51 31 51 12z m163 -24 c-22 -30 -62 -51
-75 -38 -15 15 3 42 31 48 14 3 33 9 41 13 23 13 24 5 3 -23z m301 28 c26 -10
18 -24 -13 -24 -30 0 -46 12 -34 24 8 8 27 8 47 0z m230 -2 c13 -22 -46 -59
-62 -39 -6 7 -8 17 -4 23 13 20 57 30 66 16z m646 -13 c0 -5 -7 -9 -15 -9 -15
0 -20 12 -9 23 8 8 24 -1 24 -14z m-486 -4 c-4 -8 -10 -15 -15 -15 -4 0 -6 7
-3 15 4 8 10 15 15 15 4 0 6 -7 3 -15z m-554 -5 c0 -5 -2 -10 -4 -10 -3 0 -8
5 -11 10 -3 6 -1 10 4 10 6 0 11 -4 11 -10z m840 -30 c-8 -5 -22 -9 -30 -9
-10 0 -8 3 5 9 27 12 43 12 25 0z m-400 -14 c0 -16 -18 -31 -27 -22 -8 8 5 36
17 36 5 0 10 -6 10 -14z m-385 -6 c-3 -5 -10 -10 -16 -10 -5 0 -9 5 -9 10 0 6
7 10 16 10 8 0 12 -4 9 -10z m667 -32 c-15 -15 -26 -4 -18 18 5 13 9 15 18 6
9 -9 9 -15 0 -24z m-722 7 c0 -8 -7 -15 -15 -15 -8 0 -15 7 -15 15 0 8 7 15
15 15 8 0 15 -7 15 -15z m950 0 c0 -8 -6 -15 -14 -15 -17 0 -28 14 -19 24 12
12 33 6 33 -9z m-885 -15 c7 -22 -2 -60 -14 -60 -11 0 -23 59 -15 71 9 15 22
10 29 -11z m503 8 c-2 -6 -10 -14 -16 -16 -7 -2 -10 2 -6 12 7 18 28 22 22 4z
m120 -13 c23 -50 9 -104 -23 -91 -10 3 -24 1 -32 -5 -10 -9 -17 -9 -25 -1 -13
13 0 35 18 28 9 -3 14 1 14 11 0 22 22 83 30 83 4 0 12 -11 18 -25z m-753 -10
c0 -15 -6 -20 -25 -19 -14 1 -31 -7 -38 -18 -20 -27 -76 -21 -80 9 -5 33 34
54 93 51 42 -3 50 -6 50 -23z m291 10 c9 -21 -14 -45 -42 -45 -45 0 -21 59 24
60 7 0 15 -7 18 -15z m-708 -13 c2 -7 -3 -12 -12 -12 -9 0 -16 7 -16 16 0 17
22 14 28 -4z m262 9 c0 -12 -20 -25 -27 -18 -7 7 6 27 18 27 5 0 9 -4 9 -9z
m1470 -21 c0 -5 -4 -10 -10 -10 -5 0 -10 5 -10 10 0 6 5 10 10 10 6 0 10 -4
10 -10z m-370 -29 c0 -4 -5 -12 -11 -18 -9 -9 -5 -14 15 -19 40 -10 24 -17
-46 -20 -40 -2 -57 1 -47 7 8 5 24 9 35 9 12 0 22 6 21 13 -1 35 4 46 18 41 8
-4 15 -9 15 -13z m110 9 c12 -7 10 -9 -8 -7 -12 0 -22 5 -22 9 0 11 12 10 30
-2z m-755 -30 c-34 -7 -40 -5 -31 8 3 5 18 7 33 4 l28 -6 -30 -6z m1650 0 c-3
-5 -10 -10 -16 -10 -5 0 -9 5 -9 10 0 6 7 10 16 10 8 0 12 -4 9 -10z m-2032
-7 c-7 -2 -19 -2 -25 0 -7 3 -2 5 12 5 14 0 19 -2 13 -5z m567 -12 c0 -12 -9
-20 -25 -23 -15 -3 -25 -1 -25 6 0 9 8 16 48 35 1 0 2 -7 2 -18z m82 -13 c-6
-6 -8 -25 -5 -44 4 -26 2 -35 -11 -40 -29 -11 -39 10 -25 53 14 42 41 72 48
52 2 -6 -1 -15 -7 -21z m455 16 c-3 -3 -12 -4 -19 -1 -8 3 -5 6 6 6 11 1 17
-2 13 -5z m-213 -10 c9 -3 16 -14 16 -23 0 -14 7 -17 30 -13 18 3 30 0 30 -7
0 -6 -7 -11 -15 -11 -8 0 -14 -6 -12 -12 4 -22 -52 -22 -60 -1 -4 10 -13 24
-20 32 -11 10 -11 16 -2 27 13 16 12 16 33 8z m-994 -14 c-8 -5 -22 -10 -30
-10 -13 0 -13 1 0 10 8 5 22 10 30 10 13 0 13 -1 0 -10z m176 1 c-4 -5 -24
-12 -46 -16 -22 -4 -42 -11 -46 -16 -7 -13 -24 -1 -24 17 0 10 7 13 23 9 12
-3 34 -2 47 4 32 13 53 13 46 2z m1739 -21 c-3 -5 -12 -10 -20 -10 -22 0 -240
-117 -238 -128 1 -6 -5 -16 -13 -23 -13 -10 -17 -10 -25 2 -18 29 -20 27 171
118 105 49 137 60 125 41z m-670 -10 c-27 -12 -43 -12 -25 0 8 5 22 9 30 9 10
0 8 -3 -5 -9z m-1272 -14 c48 15 77 13 77 -7 0 -21 -16 -26 -22 -8 -5 15 -39
4 -68 -21 -13 -11 -32 -20 -42 -20 -15 0 -17 3 -8 19 7 14 7 20 -2 23 -6 2 -8
10 -4 16 5 9 13 9 27 1 11 -5 30 -7 42 -3z m-93 -6 c0 -5 -4 -10 -9 -10 -6 0
-13 5 -16 10 -3 6 1 10 9 10 9 0 16 -4 16 -10z m905 -21 c-5 -14 -1 -25 11
-33 17 -13 17 -14 -3 -20 -12 -4 -25 -6 -29 -5 -5 1 -11 0 -14 -1 -3 -1 -34
-4 -69 -6 -36 -2 -67 -8 -71 -13 -3 -6 -11 -6 -20 0 -13 8 -13 10 0 19 8 5 29
11 45 12 17 1 41 2 55 3 14 1 37 2 52 3 20 2 26 6 22 17 -8 19 2 45 16 45 7 0
9 -8 5 -21z m384 12 c17 -11 5 -32 -14 -24 -10 3 -15 -1 -15 -11 0 -14 4 -15
21 -6 40 22 106 -12 69 -35 -6 -4 -8 -11 -5 -16 12 -18 -5 -29 -25 -17 -15 10
-22 9 -38 -5 -29 -26 -35 -21 -28 23 4 24 2 40 -4 40 -5 0 -7 7 -5 15 3 8 7
22 10 30 5 17 14 19 34 6z m-194 -34 c-7 -16 -55 -30 -55 -16 0 5 -8 9 -17 10
-15 0 -15 2 2 9 11 4 30 6 43 3 14 -3 22 0 22 8 0 7 2 10 5 7 3 -3 3 -12 0
-21z m-916 -3 c3 -3 -1 -10 -8 -17 -9 -9 -14 -9 -20 2 -5 7 -14 10 -20 7 -12
-8 -15 6 -4 17 6 7 42 0 52 -9z m361 12 c0 -3 -4 -8 -10 -11 -5 -3 -10 -1 -10
4 0 6 5 11 10 11 6 0 10 -2 10 -4z m453 -23 c-7 -2 -19 -2 -25 0 -7 3 -2 5 12
5 14 0 19 -2 13 -5z m-796 -47 c2 -23 -4 -39 -17 -51 -27 -24 -36 -13 -15 19
10 15 14 33 10 46 -4 13 -2 20 7 20 8 0 14 -14 15 -34z m998 9 c-3 -29 -15
-47 -15 -22 0 8 -3 22 -6 31 -4 10 -1 16 9 16 10 0 14 -8 12 -25z m-537 -2
c-10 -2 -28 -2 -40 0 -13 2 -5 4 17 4 22 1 32 -1 23 -4z m-282 -31 c-8 -9 -18
-13 -22 -10 -8 9 19 37 29 31 5 -3 2 -12 -7 -21z m186 -22 c3 -36 1 -40 -19
-40 -19 0 -23 5 -23 31 0 23 -4 30 -14 26 -8 -3 -16 0 -19 7 -3 8 7 13 33 14
37 3 38 2 42 -38z m66 23 c-2 -10 3 -18 10 -19 6 -1 17 -2 23 -3 24 -2 -14
-31 -41 -31 -31 0 -35 22 -10 52 18 22 22 23 18 1z m-488 -2 c0 -14 -18 -23
-30 -16 -6 4 -8 11 -5 16 8 12 35 12 35 0z m698 3 c25 -7 28 -30 7 -58 -11
-15 -19 -16 -42 -9 -33 11 -42 42 -17 60 20 15 21 15 52 7z m762 -30 c0 -15
-10 -44 -22 -65 -18 -32 -24 -36 -40 -28 -26 14 -22 52 8 88 32 38 54 40 54 5z
m-1282 -1 c-2 -10 -10 -18 -18 -18 -8 0 -16 8 -18 18 -2 12 3 17 18 17 15 0
20 -5 18 -17z m152 3 c-16 -20 -104 -76 -118 -76 -7 0 -12 9 -12 20 0 14 6 19
23 18 12 0 42 11 67 25 52 31 57 32 40 13z m629 -21 c-12 -19 -25 -38 -30 -41
-5 -3 -7 -10 -4 -15 4 -5 -19 -9 -52 -9 -42 0 -54 3 -43 10 13 8 13 11 1 19
-8 5 -11 16 -8 25 8 21 40 33 45 18 5 -15 64 -3 75 15 4 7 14 13 22 13 11 0
10 -8 -6 -35z m-151 4 c-2 -6 -8 -10 -13 -10 -5 0 -11 4 -13 10 -2 6 4 11 13
11 9 0 15 -5 13 -11z m-763 -20 c-4 -5 -13 -9 -22 -9 -13 0 -13 3 -3 15 13 15
35 11 25 -6z m47 -40 c-4 -89 -9 -102 -37 -95 -18 5 -25 2 -25 -8 0 -8 6 -17
13 -19 6 -3 -1 -6 -16 -6 -25 -1 -27 2 -21 22 3 12 11 24 15 25 15 6 10 32 -6
38 -21 9 -19 17 9 30 15 7 30 8 40 2 14 -8 16 -4 10 33 -6 33 -4 41 7 37 10
-4 13 -20 11 -59z m513 51 c16 -7 16 -9 4 -9 -9 -1 -19 -8 -23 -16 -8 -21 -23
-19 -29 5 -7 26 13 35 48 20z m524 -19 c-13 -10 -28 -16 -33 -13 -6 3 -4 8 4
10 8 3 21 11 29 19 7 8 16 12 19 9 2 -3 -6 -14 -19 -25z m-989 -13 c0 -16 -3
-19 -11 -11 -6 6 -8 16 -5 22 11 17 16 13 16 -11z m185 -8 c-5 -8 -11 -8 -21
1 -12 10 -12 14 -2 20 16 10 33 -5 23 -21z m718 10 c22 -26 21 -30 -2 -30 -11
0 -23 -4 -26 -10 -11 -18 -33 -10 -37 14 -9 46 34 62 65 26z m-246 -12 c-3 -8
-6 -5 -6 6 -1 11 2 17 5 13 3 -3 4 -12 1 -19z m393 -16 c0 -13 -12 -22 -22
-16 -10 6 -1 24 13 24 5 0 9 -4 9 -8z m-376 -40 c-6 -9 -19 -19 -28 -20 -16
-4 -16 -2 -1 28 13 24 20 29 28 21 8 -8 9 -16 1 -29z m145 6 c-8 -14 -14 -18
-17 -10 -4 13 17 46 25 38 3 -2 -1 -15 -8 -28z m181 22 c0 -5 -2 -10 -4 -10
-3 0 -8 5 -11 10 -3 6 -1 10 4 10 6 0 11 -4 11 -10z m-951 -26 c-6 -8 -15 -14
-20 -14 -14 0 -11 28 4 33 20 7 29 -4 16 -19z m1253 -6 c-7 -7 -12 -8 -12 -2
0 14 12 26 19 19 2 -3 -1 -11 -7 -17z m-947 2 c-3 -5 -13 -10 -22 -10 -11 0
-14 -6 -10 -23 7 -27 -3 -45 -34 -61 -17 -8 -23 -19 -21 -34 2 -12 -2 -22 -7
-22 -6 0 -11 5 -11 11 0 6 -6 9 -14 6 -35 -14 -76 70 -44 89 9 6 5 11 -12 16
-16 5 -6 6 28 3 40 -3 52 -1 52 10 0 13 24 20 78 24 13 0 21 -3 17 -9z m245 6
c0 -3 -4 -8 -10 -11 -5 -3 -10 -1 -10 4 0 6 5 11 10 11 6 0 10 -2 10 -4z m341
-33 c-12 -20 -14 -14 -5 12 4 9 9 14 11 11 3 -2 0 -13 -6 -23z m749 23 c0 -11
-19 -15 -25 -6 -3 5 1 10 9 10 9 0 16 -2 16 -4z m-139 -49 c-17 -17 -24 -1
-10 25 12 21 14 21 17 4 2 -10 -1 -23 -7 -29z m-671 29 c0 -3 -4 -8 -10 -11
-5 -3 -10 -1 -10 4 0 6 5 11 10 11 6 0 10 -2 10 -4z m210 0 c0 -3 -4 -8 -10
-11 -5 -3 -10 -1 -10 4 0 6 5 11 10 11 6 0 10 -2 10 -4z m70 0 c0 -11 -19 -15
-25 -6 -3 5 1 10 9 10 9 0 16 -2 16 -4z m250 -27 c0 -17 -5 -39 -10 -50 -8
-15 -6 -24 10 -41 26 -28 25 -49 -2 -83 -15 -20 -18 -30 -10 -33 20 -6 14 -42
-7 -42 -21 0 -35 16 -36 40 0 9 -9 15 -24 15 -29 0 -41 24 -15 31 11 3 26 20
34 38 15 31 15 33 -4 42 -34 15 -31 42 9 80 45 42 55 43 55 3z m-60 11 c0 -5
-9 -10 -20 -10 -15 0 -20 -7 -20 -29 0 -37 -36 -67 -57 -49 -9 7 -12 21 -8 36
4 15 2 21 -5 17 -5 -3 -10 1 -10 9 0 9 6 13 13 10 8 -3 19 1 25 8 13 16 82 23
82 8z m625 -1 c10 -15 -1 -23 -20 -15 -9 3 -13 10 -10 16 8 13 22 13 30 -1z
m-1385 -8 c0 -5 -7 -14 -15 -21 -18 -15 -42 1 -31 19 8 13 46 15 46 2z m92
-13 c-7 -7 -12 -8 -12 -2 0 14 12 26 19 19 2 -3 -1 -11 -7 -17z m-282 2 c0 -5
-9 -10 -21 -10 -11 0 -17 5 -14 10 3 6 13 10 21 10 8 0 14 -4 14 -10z m40 0
c0 -5 -5 -10 -11 -10 -5 0 -7 5 -4 10 3 6 8 10 11 10 2 0 4 -4 4 -10z m1114
-32 c-8 -28 -12 -33 -20 -25 -9 8 6 47 17 47 6 0 7 -10 3 -22z m-1501 -13 c-3
-17 -30 -17 -37 0 -4 13 -1 16 17 13 12 -2 21 -7 20 -13z m834 -19 c-3 -22 -1
-36 6 -39 14 -4 -12 -78 -30 -84 -13 -5 -45 55 -33 62 5 3 11 -1 14 -7 3 -7 3
-3 0 10 -3 13 -1 22 6 22 7 0 9 8 5 20 -4 12 -1 27 5 35 21 26 33 17 27 -19z
m1028 24 c3 -5 -1 -10 -10 -10 -9 0 -13 5 -10 10 3 6 8 10 10 10 2 0 7 -4 10
-10z m-865 -16 c11 -12 11 -18 -2 -30 -14 -14 -17 -14 -32 1 -13 13 -14 20 -5
31 15 18 24 18 39 -2z m-680 -28 c-14 -14 -22 -2 -14 18 5 14 9 15 15 4 4 -7
4 -17 -1 -22z m310 25 c0 -10 -50 -25 -57 -17 -3 2 -2 9 2 15 8 13 55 15 55 2z
m943 -21 c-12 -9 -20 -20 -18 -22 3 -3 0 -19 -6 -37 -13 -36 -44 -58 -62 -43
-17 14 -91 -34 -83 -54 4 -9 -1 -14 -15 -14 -16 0 -18 3 -10 18 14 25 130 133
171 159 40 25 56 20 23 -7z m-1636 -20 c9 -16 21 -30 25 -30 4 0 8 -8 8 -17
-1 -17 -1 -17 -14 0 -8 10 -24 16 -37 15 -24 -3 -36 19 -25 48 8 22 23 17 43
-16z m53 20 c0 -5 -7 -10 -15 -10 -8 0 -15 5 -15 10 0 6 7 10 15 10 8 0 15 -4
15 -10z m1077 -1 c8 -8 13 -8 17 0 20 32 54 -6 36 -40 -13 -23 -38 -25 -46 -4
-4 11 -11 12 -24 5 -13 -7 -21 -5 -30 5 -26 31 18 63 47 34z m-523 -26 c21
-25 10 -31 -19 -10 -10 8 -15 19 -11 26 5 7 9 11 10 9 0 -2 10 -13 20 -25z
m126 -4 c0 -15 -4 -19 -16 -15 -9 3 -24 6 -35 6 -17 0 -18 2 -7 15 21 23 58
19 58 -6z m-790 -4 c0 -8 -9 -15 -20 -15 -20 0 -26 11 -13 23 12 13 33 7 33
-8z m230 6 c-13 -8 -61 -15 -83 -12 -5 1 -5 6 -2 11 3 6 27 10 53 10 32 -1 42
-3 32 -9z m300 -11 c0 -11 -4 -20 -9 -20 -14 0 -23 18 -16 30 10 17 25 11 25
-10z m-677 -15 c3 -16 0 -24 -7 -22 -14 4 -21 47 -8 47 5 0 12 -11 15 -25z
m579 10 c0 -5 -5 -11 -11 -13 -6 -2 -11 4 -11 13 0 9 5 15 11 13 6 -2 11 -8
11 -13z m176 -2 c-5 -25 -28 -28 -28 -4 0 12 6 21 16 21 9 0 14 -7 12 -17z
m-353 -4 c4 -6 -2 -13 -13 -16 -12 -3 -23 -15 -25 -27 -3 -15 -5 -12 -6 10 0
17 2 34 6 37 10 10 31 8 38 -4z m765 -10 c0 -5 -11 -9 -25 -9 -24 0 -32 10
-19 22 8 8 44 -3 44 -13z m70 11 c0 -5 -4 -10 -10 -10 -5 0 -10 5 -10 10 0 6
5 10 10 10 6 0 10 -4 10 -10z m280 -9 c0 -6 -4 -13 -10 -16 -5 -3 -10 1 -10 9
0 9 5 16 10 16 6 0 10 -4 10 -9z m-1170 -11 c0 -11 -48 -25 -56 -17 -4 3 -3
10 1 16 8 14 55 14 55 1z m290 -15 c0 -19 -20 -29 -32 -17 -8 8 -7 16 2 26 14
17 30 12 30 -9z m-115 -15 c0 -20 -6 -26 -27 -28 -24 -3 -28 0 -28 21 0 30 9
39 35 35 14 -2 20 -10 20 -28z m717 8 c-7 -7 -12 -8 -12 -2 0 14 12 26 19 19
2 -3 -1 -11 -7 -17z m-256 -36 c-11 -10 -15 4 -8 28 l7 25 3 -23 c2 -13 1 -26
-2 -30z m44 40 c0 -13 -12 -22 -22 -16 -10 6 -1 24 13 24 5 0 9 -4 9 -8z
m-1086 -34 c-9 -14 -23 2 -17 18 4 12 8 13 14 3 4 -7 5 -17 3 -21z m236 12 c0
-5 -9 -10 -21 -10 -11 0 -17 5 -14 10 3 6 13 10 21 10 8 0 14 -4 14 -10z m10
-30 c0 -5 -5 -10 -11 -10 -5 0 -7 5 -4 10 3 6 8 10 11 10 2 0 4 -4 4 -10z
m956 -12 c4 -6 -2 -19 -14 -29 -12 -9 -22 -21 -22 -27 0 -5 -11 -7 -25 -4 -22
4 -23 7 -13 26 7 13 13 16 16 8 2 -6 8 -12 14 -12 6 0 7 7 4 16 -11 30 23 49
40 22z m698 -15 c-20 -14 -36 -13 -41 4 -5 13 25 22 46 15 11 -4 10 -8 -5 -19z
m-639 7 c3 -5 1 -10 -4 -10 -6 0 -11 5 -11 10 0 6 2 10 4 10 3 0 8 -4 11 -10z
m273 -8 c2 -7 -3 -12 -12 -12 -9 0 -16 7 -16 16 0 17 22 14 28 -4z m-1028 -2
c0 -5 -7 -10 -15 -10 -8 0 -15 -5 -15 -11 0 -14 72 -2 82 14 6 9 11 8 18 -3 6
-9 6 -18 0 -24 -6 -6 -10 -20 -10 -33 0 -27 -15 -31 -24 -6 -5 12 -9 14 -18 5
-7 -7 -22 -12 -35 -12 -20 0 -21 -3 -13 -24 7 -18 5 -26 -5 -30 -8 -3 -22 -22
-32 -42 -20 -42 -33 -46 -49 -15 -6 11 -14 18 -17 14 -4 -3 -7 -1 -7 6 0 7 -4
10 -9 6 -14 -8 -24 13 -16 33 6 16 8 15 21 -2 8 -11 14 -14 14 -7 0 7 4 10 9
6 5 -3 13 0 17 6 4 8 9 7 15 -2 7 -12 11 -11 26 4 16 16 16 17 0 17 -10 0 -17
8 -17 20 0 14 7 20 21 20 16 0 19 4 14 19 -7 23 14 61 32 61 7 0 13 -4 13 -10z
m610 -5 c0 -8 -9 -15 -20 -15 -11 0 -20 7 -20 15 0 8 9 15 20 15 11 0 20 -7
20 -15z m-1112 -18 c5 -24 -15 -21 -21 4 -3 13 -1 19 6 16 7 -2 13 -11 15 -20z
m632 13 c0 -5 -4 -10 -10 -10 -5 0 -10 5 -10 10 0 6 5 10 10 10 6 0 10 -4 10
-10z m820 0 c0 -5 -4 -10 -10 -10 -5 0 -10 5 -10 10 0 6 5 10 10 10 6 0 10 -4
10 -10z m830 0 c0 -5 -4 -10 -10 -10 -5 0 -10 5 -10 10 0 6 5 10 10 10 6 0 10
-4 10 -10z m-532 -21 c-2 -6 -8 -10 -13 -10 -5 0 -11 4 -13 10 -2 6 4 11 13
11 9 0 15 -5 13 -11z m-1328 -14 c0 -8 -2 -15 -4 -15 -2 0 -6 7 -10 15 -3 8
-1 15 4 15 6 0 10 -7 10 -15z m1225 5 c-3 -5 -11 -10 -16 -10 -6 0 -7 5 -4 10
3 6 11 10 16 10 6 0 7 -4 4 -10z m-1025 -35 c0 -19 -20 -29 -32 -17 -8 8 -7
16 2 26 14 17 30 12 30 -9z m1300 5 c8 -5 11 -12 7 -16 -4 -4 -15 0 -24 9 -18
18 -8 23 17 7z m-1599 -23 c-5 -7 -11 -25 -13 -41 l-3 -28 -28 26 c-30 28 -29
53 3 36 14 -8 19 -5 23 11 3 12 10 18 17 14 7 -4 8 -11 1 -18z m1076 9 c-3 -7
-1 -18 4 -23 11 -11 -14 -43 -34 -43 -8 0 -8 3 1 9 7 4 14 21 16 37 4 34 4 34
12 34 3 0 4 -6 1 -14z m203 4 c0 -5 -9 -10 -21 -10 -11 0 -17 5 -14 10 3 6 13
10 21 10 8 0 14 -4 14 -10z m515 0 c3 -5 -1 -10 -9 -10 -9 0 -16 5 -16 10 0 6
4 10 9 10 6 0 13 -4 16 -10z m-675 -4 c0 -3 -4 -8 -10 -11 -5 -3 -10 -1 -10 4
0 6 5 11 10 11 6 0 10 -2 10 -4z m25 -6 c3 -5 1 -10 -4 -10 -6 0 -11 5 -11 10
0 6 2 10 4 10 3 0 8 -4 11 -10z m703 -12 c-2 -4 6 -13 16 -21 12 -9 15 -16 9
-20 -6 -4 -18 4 -27 18 -19 28 -20 38 -5 33 6 -2 9 -7 7 -10z m-258 -8 c0 -11
-40 -40 -55 -40 -18 0 -20 21 -3 38 11 11 58 13 58 2z m-319 -44 c-15 -16 -20
-31 -17 -47 3 -13 9 -36 12 -51 4 -18 2 -28 -5 -28 -9 0 -16 28 -12 53 3 19
-48 5 -63 -18 -19 -29 -42 -35 -27 -7 19 35 125 144 129 133 2 -7 -6 -23 -17
-35z m-1303 -26 c2 -13 0 -20 -7 -16 -5 4 -7 14 -4 23 4 11 2 14 -5 9 -6 -4
-16 3 -23 16 -12 22 -12 22 12 7 13 -9 26 -26 27 -39z m962 23 c0 -5 -4 -14
-9 -21 -7 -11 -9 -11 -14 1 -3 8 -3 18 0 21 9 8 23 7 23 -1z m174 -11 c2 -4 1
-14 -4 -22 -7 -11 -11 -11 -24 -1 -9 7 -13 17 -10 22 7 11 31 12 38 1z m46 -7
c10 -12 10 -15 -4 -15 -9 0 -16 7 -16 15 0 8 2 15 4 15 2 0 9 -7 16 -15z m776
-6 c3 -6 2 -15 -3 -20 -13 -13 -43 -1 -43 17 0 16 36 19 46 3z m564 -14 c15
-18 5 -35 -20 -35 -32 0 -50 11 -50 31 0 24 51 27 70 4z m-1110 -20 c0 -8 -7
-15 -15 -15 -8 0 -15 7 -15 15 0 8 7 15 15 15 8 0 15 -7 15 -15z m257 0 c3 -9
3 -18 1 -21 -9 -9 -38 8 -38 22 0 19 29 18 37 -1z m338 -5 c3 -5 -1 -10 -9
-10 -9 0 -16 5 -16 10 0 6 4 10 9 10 6 0 13 -4 16 -10z m-538 -16 c-3 -3 -12
-4 -19 -1 -8 3 -5 6 6 6 11 1 17 -2 13 -5z m-1400 -26 c-3 -8 -6 -5 -6 6 -1
11 2 17 5 13 3 -3 4 -12 1 -19z m1651 0 c-7 -20 -58 -23 -58 -4 0 11 10 16 31
16 20 0 29 -4 27 -12z m-243 -8 c3 -5 -1 -10 -9 -10 -9 0 -16 5 -16 10 0 6 4
10 9 10 6 0 13 -4 16 -10z m110 0 c-3 -5 -11 -10 -16 -10 -6 0 -7 5 -4 10 3 6
11 10 16 10 6 0 7 -4 4 -10z m-331 -15 c-7 -17 -20 -20 -28 -6 -4 5 0 12 6 14
23 9 28 7 22 -8z m936 0 c0 -8 -6 -15 -14 -15 -17 0 -28 14 -19 24 12 12 33 6
33 -9z m-750 -19 c0 -2 -7 -7 -16 -10 -8 -3 -12 -2 -9 4 6 10 25 14 25 6z
m167 -2 c-3 -3 -12 -4 -19 -1 -8 3 -5 6 6 6 11 1 17 -2 13 -5z m-308 -22 c9
-14 54 -9 67 7 7 9 13 10 18 3 10 -17 -5 -44 -22 -37 -8 3 -19 0 -23 -7 -6 -9
-11 -9 -21 0 -11 8 -18 8 -25 1 -7 -7 -17 -8 -25 -3 -7 5 -24 8 -38 7 -19 -1
-20 0 -5 4 39 10 41 25 3 18 -34 -7 -48 1 -32 17 8 9 96 1 103 -10z m897 -7
c19 -15 19 -15 0 -30 -23 -18 -56 -3 -56 25 0 24 28 26 56 5z m-696 -25 c0 -5
-4 -10 -10 -10 -5 0 -10 5 -10 10 0 6 5 10 10 10 6 0 10 -4 10 -10z m386 -14
c27 -20 6 -43 -25 -27 -22 12 -26 23 -14 34 9 10 17 9 39 -7z m62 -4 c3 -9 -2
-13 -14 -10 -9 1 -19 9 -22 16 -3 9 2 13 14 10 9 -1 19 -9 22 -16z m-888 -43
c0 -5 -4 -9 -10 -9 -5 0 -10 7 -10 16 0 8 5 12 10 9 6 -3 10 -10 10 -16z m10
-29 c0 -5 -7 -10 -16 -10 -8 0 -12 5 -9 10 3 6 10 10 16 10 5 0 9 -4 9 -10z
m-40 -50 c0 -5 -4 -10 -10 -10 -5 0 -10 5 -10 10 0 6 5 10 10 10 6 0 10 -4 10
-10z m363 -26 c-7 -18 -43 -18 -43 -1 0 20 9 25 30 20 11 -3 16 -11 13 -19z
m87 -19 c0 -8 -4 -15 -10 -15 -5 0 -10 7 -10 15 0 8 5 15 10 15 6 0 10 -7 10
-15z"/>
<path d="M2925 4499 c-256 -10 -389 -23 -438 -44 -54 -23 -114 -81 -138 -134
-33 -74 -47 -155 -60 -336 -13 -190 -6 -848 10 -977 12 -96 31 -159 44 -151 6
3 7 1 3 -5 -10 -16 12 -64 47 -101 85 -89 176 -99 1027 -117 298 -7 899 8
1104 27 128 11 191 35 240 89 38 42 70 119 85 206 28 160 39 656 21 984 -16
288 -43 394 -118 462 -41 37 -133 79 -139 63 -8 -24 -23 -39 -30 -32 -4 4 -2
16 4 26 11 17 5 19 -80 25 -350 25 -1132 32 -1582 15z m1195 -78 c0 -12 -29
-35 -36 -28 -11 10 5 37 21 37 8 0 15 -4 15 -9z m-370 -121 c0 -5 -7 -10 -16
-10 -8 0 -12 5 -9 10 3 6 10 10 16 10 5 0 9 -4 9 -10z m211 -13 c-13 -13 -26
-3 -16 12 3 6 11 8 17 5 6 -4 6 -10 -1 -17z m-585 -226 c58 -27 612 -329 659
-360 70 -46 80 -135 22 -188 -12 -12 -173 -102 -359 -202 -382 -206 -389 -208
-456 -147 l-37 34 0 400 c0 391 1 401 21 429 18 24 69 51 99 52 6 0 28 -8 51
-18z m910 -88 c-10 -10 -19 5 -10 18 6 11 8 11 12 0 2 -7 1 -15 -2 -18z m524
7 c0 -5 -7 -10 -15 -10 -8 0 -15 5 -15 10 0 6 7 10 15 10 8 0 15 -4 15 -10z
m-2278 -42 c-7 -7 -12 -8 -12 -2 0 14 12 26 19 19 2 -3 -1 -11 -7 -17z m-52
-558 c0 -5 -5 -10 -11 -10 -5 0 -7 5 -4 10 3 6 8 10 11 10 2 0 4 -4 4 -10z
m160 0 c0 -6 -14 -29 -31 -53 -31 -42 -64 -64 -74 -47 -10 15 6 38 46 66 21
14 39 31 39 35 0 5 5 9 10 9 6 0 10 -5 10 -10z m250 -160 c5 0 7 7 4 15 -7 17
11 21 21 5 8 -13 -25 -80 -43 -87 -23 -9 -32 18 -16 48 8 16 15 38 15 51 2 19
3 19 6 -4 2 -16 8 -28 13 -28z m865 40 c-3 -5 -11 -10 -16 -10 -6 0 -7 5 -4
10 3 6 11 10 16 10 6 0 7 -4 4 -10z m-1245 -41 c-11 -20 -22 -24 -33 -12 -9 9
23 44 34 37 5 -3 4 -14 -1 -25z m-140 -46 c0 -5 -5 -15 -10 -23 -8 -12 -10
-11 -10 8 0 12 5 22 10 22 6 0 10 -3 10 -7z m451 -26 c-13 -13 -26 -3 -16 12
3 6 11 8 17 5 6 -4 6 -10 -1 -17z m-229 -65 c-6 -19 -6 -34 0 -46 8 -13 6 -22
-6 -34 -15 -15 -16 -15 -16 5 0 11 -10 28 -22 37 l-23 16 34 30 c40 34 47 33
33 -8z m-112 14 c0 -3 -4 -8 -10 -11 -5 -3 -10 -1 -10 4 0 6 5 11 10 11 6 0
10 -2 10 -4z m440 0 c0 -3 -4 -8 -10 -11 -5 -3 -10 -1 -10 4 0 6 5 11 10 11 6
0 10 -2 10 -4z m-380 -146 c0 -5 -5 -10 -11 -10 -5 0 -7 5 -4 10 3 6 8 10 11
10 2 0 4 -4 4 -10z m350 -9 c0 -12 -20 -25 -27 -18 -7 7 6 27 18 27 5 0 9 -4
9 -9z m410 0 c0 -12 -20 -25 -27 -18 -7 7 6 27 18 27 5 0 9 -4 9 -9z m-874
-48 c-11 -11 -17 4 -9 23 7 18 8 18 11 1 2 -10 1 -21 -2 -24z m1529 -43 c-3
-5 -13 -10 -21 -10 -8 0 -12 5 -9 10 3 6 13 10 21 10 8 0 12 -4 9 -10z m-1312
-61 c4 -15 2 -19 -10 -15 -8 3 -17 6 -19 6 -2 0 -4 7 -4 15 0 23 27 18 33 -6z
m1137 6 c0 -16 -27 -32 -37 -21 -7 7 16 36 28 36 5 0 9 -7 9 -15z m374 -24 c3
-5 -1 -11 -9 -15 -9 -3 -15 0 -15 9 0 16 16 20 24 6z m-1414 -15 c0 -3 -4 -8
-10 -11 -5 -3 -10 -1 -10 4 0 6 5 11 10 11 6 0 10 -2 10 -4z m680 -6 c0 -5 -5
-10 -11 -10 -5 0 -7 5 -4 10 3 6 8 10 11 10 2 0 4 -4 4 -10z m-165 -41 c0 -7
-8 -15 -17 -17 -18 -3 -25 18 -11 32 10 10 28 1 28 -15z m-55 -44 c-7 -8 -16
-12 -21 -9 -13 8 -1 24 18 24 13 0 13 -3 3 -15z"/>
<path d="M3380 3601 l0 -260 88 47 c255 137 382 207 382 212 0 3 -69 42 -153
88 -83 45 -189 103 -234 128 l-83 45 0 -260z"/>
<path d="M4295 6160 c-3 -5 -13 -10 -21 -10 -15 0 -74 -57 -74 -71 0 -4 7 -10
16 -13 10 -4 21 4 32 24 9 16 24 31 33 33 19 5 46 47 30 47 -5 0 -13 -4 -16
-10z"/>
<path d="M3969 6147 c-1 -1 -3 -24 -4 -50 -1 -33 1 -45 9 -37 5 5 17 10 26 10
9 0 16 10 17 28 1 20 -4 30 -23 39 -13 6 -25 10 -25 10z"/>
<path d="M4397 6125 c3 -8 9 -12 14 -9 12 7 11 11 -5 17 -10 4 -13 1 -9 -8z"/>
<path d="M4336 6103 c-11 -11 -6 -23 9 -23 8 0 15 4 15 9 0 13 -16 22 -24 14z"/>
<path d="M4376 6065 c4 -8 8 -15 10 -15 2 0 4 7 4 15 0 8 -4 15 -10 15 -5 0
-7 -7 -4 -15z"/>
<path d="M4960 5869 c0 -5 5 -7 10 -4 6 3 10 8 10 11 0 2 -4 4 -10 4 -5 0 -10
-5 -10 -11z"/>
<path d="M5350 5580 c-9 -6 -10 -10 -3 -10 6 0 15 5 18 10 8 12 4 12 -15 0z"/>
<path d="M1297 2574 c-4 -7 0 -17 8 -24 11 -9 12 -17 5 -30 -14 -26 -12 -40 5
-40 20 0 19 -10 -2 -25 -9 -7 -14 -19 -10 -29 10 -26 21 -19 40 24 9 22 21 40
27 40 5 0 17 14 25 31 l17 31 -31 -7 c-39 -8 -69 1 -73 23 -2 11 -6 13 -11 6z"/>
<path d="M1463 2361 c-11 -18 -8 -31 8 -31 11 0 18 26 10 38 -4 7 -11 5 -18
-7z"/>
<path d="M1462 2047 c-7 -8 -7 -18 -1 -27 7 -12 10 -11 15 7 4 13 10 20 15 17
5 -3 9 0 9 5 0 15 -25 14 -38 -2z"/>
<path d="M1791 1927 c-6 -6 -21 -11 -33 -12 -15 -1 -24 -9 -26 -23 -2 -12 -7
-22 -12 -22 -5 0 0 -16 12 -36 19 -32 23 -34 33 -20 7 9 17 16 23 16 15 0 75
78 68 89 -9 14 -54 19 -65 8z"/>
<path d="M1593 1918 c-6 -7 -15 -28 -21 -46 -10 -29 -9 -33 5 -30 9 2 27 22
40 46 22 40 23 42 5 42 -11 0 -24 -6 -29 -12z"/>
<path d="M1673 1893 c-15 -3 -20 -9 -16 -19 4 -11 0 -15 -13 -12 -11 2 -20 -4
-22 -15 -3 -17 -2 -17 31 0 31 16 69 55 50 52 -5 -1 -18 -4 -30 -6z"/>
<path d="M2002 1810 c-6 -11 -12 -27 -12 -36 0 -23 25 -11 26 13 1 11 4 25 8
32 4 6 3 11 -1 11 -5 0 -14 -9 -21 -20z"/>
<path d="M1545 1800 c3 -5 8 -10 11 -10 2 0 4 5 4 10 0 6 -5 10 -11 10 -5 0
-7 -4 -4 -10z"/>
<path d="M1733 1706 c-31 -33 -29 -47 6 -40 33 7 47 -8 32 -33 -6 -12 -4 -28
11 -56 19 -38 20 -38 39 -21 11 10 19 12 19 6 0 -7 7 -12 15 -12 8 0 15 7 15
15 0 9 -7 18 -15 21 -20 8 -19 40 2 48 13 5 3 14 -39 33 -35 16 -58 32 -60 44
-3 17 -5 16 -25 -5z"/>
<path d="M2075 1450 c3 -5 8 -10 11 -10 2 0 4 5 4 10 0 6 -5 10 -11 10 -5 0
-7 -4 -4 -10z"/>
<path d="M2960 1356 c0 -8 5 -18 10 -21 6 -3 10 1 10 9 0 8 -4 18 -10 21 -5 3
-10 -1 -10 -9z"/>
<path d="M2735 1331 c-15 -21 -16 -23 -2 -12 25 20 33 5 11 -21 -10 -12 -14
-19 -9 -16 6 4 19 0 30 -8 17 -13 17 -15 3 -26 -9 -7 -19 -23 -22 -35 -6 -19
-4 -21 16 -15 49 15 108 56 108 75 0 16 -3 17 -15 7 -9 -8 -15 -9 -15 -2 0 6
5 14 10 17 6 3 10 10 10 15 0 13 -33 0 -43 -16 -10 -17 -37 -6 -37 15 0 9 -6
23 -13 32 -11 15 -14 14 -32 -10z"/>
<path d="M3012 1273 c-10 -10 -27 -19 -37 -20 -77 -8 -135 -41 -135 -78 0 -13
5 -27 12 -31 19 -12 57 -14 64 -3 3 5 0 8 -7 7 -6 -2 -14 3 -16 10 -4 9 5 11
38 6 30 -5 40 -4 35 4 -4 7 -15 12 -24 12 -12 0 -13 3 -5 11 6 6 9 18 6 25 -3
8 -1 14 3 15 71 5 130 30 118 50 -9 14 -33 10 -52 -8z"/>
<path d="M3210 1245 c0 -8 5 -15 10 -15 6 0 10 7 10 15 0 8 -4 15 -10 15 -5 0
-10 -7 -10 -15z"/>
<path d="M2584 1214 c2 -15 9 -30 16 -32 8 -3 10 2 5 19 -11 37 -24 45 -21 13z"/>
<path d="M3234 1203 c3 -3 1 -12 -4 -18 -7 -8 -6 -21 4 -39 l14 -27 21 29 c29
42 27 57 -10 59 -18 1 -29 0 -25 -4z"/>
<path d="M2490 1184 c0 -8 9 -14 20 -14 11 0 20 4 20 9 0 5 -9 11 -20 14 -13
3 -20 0 -20 -9z"/>
<path d="M2791 1173 c0 -7 -8 -10 -16 -7 -9 4 -15 1 -15 -7 0 -8 16 -19 35
-25 29 -9 35 -9 35 4 0 8 -6 12 -14 9 -10 -4 -16 2 -19 16 -2 12 -5 17 -6 10z"/>
<path d="M2590 1141 c0 -11 4 -21 9 -21 18 0 21 18 6 30 -13 10 -15 9 -15 -9z"/>
<path d="M2511 1141 c-10 -7 -11 -13 -2 -29 14 -26 42 -18 37 11 -3 24 -15 30
-35 18z"/>
<path d="M2751 1034 c0 -11 3 -14 6 -6 3 7 2 16 -1 19 -3 4 -6 -2 -5 -13z"/>
<path d="M3145 1020 c-3 -5 -1 -11 5 -15 6 -4 7 -11 4 -17 -4 -6 1 -8 15 -3
17 5 21 2 21 -14 0 -25 15 -28 24 -5 11 29 -54 78 -69 54z"/>
<path d="M3146 951 c-3 -5 1 -11 9 -15 9 -3 15 0 15 9 0 16 -16 20 -24 6z"/>
<path d="M3223 924 c-7 -18 12 -34 40 -34 23 0 22 27 -2 40 -26 13 -31 13 -38
-6z"/>
</g>
</svg>
